<svg width="196" height="196" viewBox="0 0 196 196" fill="none" xmlns="http://www.w3.org/2000/svg">
<g opacity="0.6" filter="url(#filter0_f_5518_2252)">
<circle cx="98" cy="98" r="58" fill="url(#paint0_linear_5518_2252)"/>
</g>
<circle opacity="0.3" cx="98" cy="98" r="43" stroke="url(#paint1_linear_5518_2252)" stroke-width="4"/>
<path d="M75.5171 85.3873C76.4134 86.6329 77.5846 87.5726 78.9152 88.3344C83.3526 90.87 88.7632 90.3362 93.5634 91.7597C94.0748 91.9154 94.5972 92.0933 95.114 92.2435C95.6639 92.4047 96.5272 92.9774 97.154 92.7105C97.7423 92.3658 97.7918 91.3204 97.9953 90.781C98.1877 90.2695 98.3527 89.7412 98.5396 89.2352C100.277 84.4921 103.923 80.4162 104.561 75.3006C104.753 73.7658 104.704 72.2534 104.253 70.7799C103.802 69.3008 102.818 67.3546 101.619 66.3314C98.7981 63.9237 95.7134 63.2898 92.6782 64.8579L92.3372 65.0358C91.1551 65.6586 90.1323 66.5205 89.269 67.5381C88.3453 68.6335 87.9109 69.7901 87.2071 70.9912C86.9376 71.4416 86.3768 71.7251 85.8599 71.6751C84.4853 71.5305 83.3086 71.1913 81.89 71.2914C80.5648 71.3859 79.2726 71.7029 78.0685 72.2868C77.9585 72.3424 77.843 72.398 77.7275 72.4591C74.6758 73.9883 73.3287 76.8742 73.5596 80.5997C73.6531 82.1789 74.6099 84.1362 75.5171 85.3873ZM85.442 111.099C84.7987 107.04 85.772 102.675 84.2049 98.7993C83.732 97.6372 83.0996 96.5862 82.2034 95.7243C81.2961 94.8569 79.828 93.8671 78.5798 93.6336C75.6271 93.0664 73.1912 93.8671 71.6571 96.197L71.4867 96.4639C70.8983 97.3814 70.5079 98.4101 70.299 99.4721C70.0735 100.623 70.2275 101.613 70.2 102.753C70.189 103.187 69.9031 103.609 69.5182 103.787C68.4899 104.243 67.5222 104.477 66.5599 105.116C65.6527 105.722 64.8664 106.467 64.245 107.368L64.0746 107.624C62.513 109.943 62.7 112.523 64.333 115.075C65.0203 116.159 66.483 117.16 67.6157 117.677C68.7484 118.194 69.9471 118.389 71.1897 118.389C75.3357 118.395 78.9592 115.837 82.9182 114.903C83.3416 114.802 83.7815 114.719 84.2104 114.613C84.6667 114.502 85.5025 114.563 85.8379 114.124C86.1184 113.64 85.7445 112.884 85.6785 112.411C85.607 111.978 85.5135 111.533 85.442 111.099ZM130.992 88.39L130.761 88.1843C129.947 87.4614 129.002 86.922 127.984 86.555C126.896 86.1658 125.901 86.1714 124.795 85.9768C124.377 85.9045 124.004 85.5542 123.888 85.1371C123.591 84.0417 123.503 83.0464 123.019 81.9787C122.563 80.989 121.953 80.0937 121.161 79.3375L120.935 79.1318C118.895 77.2301 116.344 77.041 113.606 78.2977C112.446 78.8259 111.258 80.1438 110.582 81.2003C109.911 82.2512 109.542 83.4245 109.361 84.67C108.75 88.8182 110.724 92.8162 111.054 96.9143C111.087 97.348 111.104 97.804 111.148 98.2433C111.192 98.7159 111.005 99.5444 111.39 99.9448C111.824 100.29 112.616 100.034 113.083 100.028C113.523 100.028 113.969 100.006 114.403 100C118.466 99.9503 122.59 101.563 126.621 100.568C127.825 100.267 128.947 99.7891 129.92 99.0162C130.899 98.2377 132.081 96.9143 132.493 95.6965C133.478 92.8273 133.054 90.2639 130.992 88.39ZM105.198 117.116C104.94 116.093 104.533 115.142 103.884 114.319C103.23 113.485 102.119 112.495 101.107 112.145C98.7101 111.322 96.5876 111.705 95.0425 113.468L94.8666 113.663C94.2767 114.361 93.8233 115.167 93.5304 116.037C93.2115 116.966 93.2225 117.811 93.0631 118.756C93.0026 119.112 92.7166 119.434 92.3757 119.534C91.4685 119.79 90.6327 119.874 89.7529 120.296C88.9336 120.691 88.1858 121.219 87.5645 121.898L87.3885 122.098C85.8214 123.838 85.6785 126.018 86.7397 128.337C87.1906 129.321 88.2848 130.327 89.1756 130.895C90.0608 131.462 91.0396 131.762 92.0733 131.912C95.5264 132.402 98.8421 130.7 102.257 130.389C102.62 130.355 102.999 130.339 103.367 130.305C103.758 130.266 104.445 130.422 104.781 130.088C105.072 129.721 104.846 129.049 104.841 128.643C104.835 128.27 104.814 127.892 104.803 127.525C104.737 124.061 106.056 120.535 105.198 117.116ZM128.32 115.108C127.743 114.547 127.055 114.124 126.313 113.813C125.521 113.49 124.779 113.468 123.971 113.284C123.663 113.218 123.393 112.945 123.322 112.634C123.135 111.816 123.102 111.071 122.772 110.271C122.464 109.52 122.035 108.836 121.469 108.258L121.309 108.091C119.858 106.623 117.972 106.406 115.899 107.251C115.024 107.613 114.106 108.547 113.573 109.309C113.045 110.07 112.737 110.932 112.566 111.844C111.989 114.897 113.331 117.922 113.452 120.975C113.468 121.303 113.468 121.636 113.474 121.959C113.496 122.309 113.331 122.915 113.606 123.232C113.914 123.499 114.513 123.332 114.859 123.343C115.184 123.355 115.519 123.355 115.838 123.36C118.851 123.449 121.859 124.772 124.872 124.155C125.78 123.972 126.621 123.649 127.369 123.104C128.116 122.559 129.029 121.614 129.376 120.73C130.195 118.634 129.953 116.721 128.485 115.27L128.32 115.108Z" fill="white"/>
<defs>
<filter id="filter0_f_5518_2252" x="0" y="0" width="196" height="196" filterUnits="userSpaceOnUse" color-interpolation-filters="sRGB">
<feFlood flood-opacity="0" result="BackgroundImageFix"/>
<feBlend mode="normal" in="SourceGraphic" in2="BackgroundImageFix" result="shape"/>
<feGaussianBlur stdDeviation="20" result="effect1_foregroundBlur_5518_2252"/>
</filter>
<linearGradient id="paint0_linear_5518_2252" x1="52.992" y1="57.69" x2="147.878" y2="64.4087" gradientUnits="userSpaceOnUse">
<stop stop-color="#BB0DBA"/>
<stop offset="0.488034" stop-color="#5C18DD"/>
<stop offset="1" stop-color="#0099AD"/>
</linearGradient>
<linearGradient id="paint1_linear_5518_2252" x1="63.08" y1="66.725" x2="136.699" y2="71.9378" gradientUnits="userSpaceOnUse">
<stop stop-color="#BB0DBA"/>
<stop offset="0.488034" stop-color="#5C18DD"/>
<stop offset="1" stop-color="#0099AD"/>
</linearGradient>
</defs>
</svg>
