<svg width="196" height="196" viewBox="0 0 196 196" fill="none" xmlns="http://www.w3.org/2000/svg">
<g opacity="0.6" filter="url(#filter0_f_5518_2260)">
<circle cx="98" cy="98" r="58" fill="url(#paint0_linear_5518_2260)"/>
</g>
<circle opacity="0.3" cx="98" cy="98" r="43" stroke="url(#paint1_linear_5518_2260)" stroke-width="4"/>
<path d="M107.165 77.6806C108.701 77.2865 110.312 77.2875 111.847 77.6836C113.382 78.0796 114.791 78.8581 115.945 79.9453C117.074 81.0086 117.921 82.334 118.415 83.8027L131.021 117.85L131.067 117.983C131.586 119.618 131.639 121.365 131.222 123.028C130.804 124.692 129.932 126.207 128.701 127.401C127.471 128.596 125.931 129.423 124.255 129.789C122.579 130.155 120.835 130.044 119.219 129.47C119.204 129.464 119.188 129.459 119.173 129.453L85.2002 116.755V116.754C83.7389 116.227 82.431 115.346 81.3955 114.187C80.3486 113.016 79.6132 111.599 79.2559 110.069C78.8987 108.539 78.9316 106.944 79.3506 105.43C79.7696 103.915 80.5616 102.53 81.6553 101.402L81.6846 101.372L102.994 80.0049L103.063 79.9375C104.219 78.8518 105.63 78.0748 107.165 77.6806ZM110.348 83.4931C109.793 83.3502 109.212 83.3498 108.657 83.4922C108.11 83.6326 107.606 83.9078 107.19 84.2929L85.9531 105.589C85.565 105.993 85.2828 106.488 85.1328 107.03C84.9817 107.577 84.9697 108.153 85.0987 108.705C85.2277 109.257 85.4936 109.768 85.8701 110.189C86.1995 110.558 86.6046 110.848 87.0557 111.04L87.252 111.117L87.3008 111.135L121.227 123.815H121.228C121.789 124.015 122.394 124.054 122.976 123.927C123.557 123.8 124.093 123.512 124.522 123.096C124.951 122.679 125.256 122.15 125.402 121.567C125.545 120.997 125.53 120.399 125.359 119.838L112.781 85.8681C112.767 85.8295 112.754 85.7902 112.741 85.751C112.563 85.2015 112.25 84.7068 111.831 84.3125C111.413 83.9182 110.902 83.6362 110.348 83.4931ZM68.918 93.0703C71.8238 91.4444 75.2275 90.9533 78.4737 91.6924C80.0891 92.0602 81.1011 93.6678 80.7334 95.2832C80.3656 96.8987 78.7571 97.9108 77.1416 97.5429C75.3439 97.1337 73.4585 97.4053 71.8477 98.3066C70.4018 99.1155 68.5737 98.5991 67.7647 97.1533C66.9556 95.7074 67.4721 93.8794 68.918 93.0703ZM77.3281 73.3476C77.5559 71.7067 79.071 70.5606 80.7119 70.7881C82.353 71.0156 83.4989 72.5308 83.2715 74.1719C83.0291 75.9201 83.3924 77.6946 84.293 79.2012L84.4805 79.499L84.5625 79.6299C85.3701 80.9961 84.9722 82.7705 83.6338 83.6562C82.2952 84.5418 80.5061 84.2141 79.5645 82.9365L79.4766 82.8095L79.1436 82.2803C77.5426 79.6025 76.8979 76.4509 77.3281 73.3476ZM90.8233 62.0713C91.3362 60.4959 93.0291 59.6346 94.6045 60.1474C96.1798 60.6605 97.0412 62.3533 96.5283 63.9287C95.0162 68.5734 95.1615 73.5959 96.9307 78.1377L97.1074 78.5752L97.1631 78.7197C97.6969 80.2142 96.9695 81.8812 95.4873 82.497C94.0051 83.1127 92.3112 82.4515 91.6289 81.0185L91.5664 80.8779L91.3399 80.3154C89.0681 74.4833 88.8817 68.035 90.8233 62.0713Z" fill="white"/>
<path d="M65.043 75.6047C64.7828 75.6047 64.5859 75.814 64.5859 76.0549L64.5947 76.1438C64.6361 76.3451 64.8155 76.5051 65.043 76.5051C65.2704 76.5051 65.4498 76.3451 65.4912 76.1438L65.5 76.0549L65.4912 75.9661C65.4557 75.7934 65.3185 75.6515 65.1367 75.6145L65.043 75.6047ZM70.5859 76.0549C70.5859 79.1123 68.1118 81.6047 65.043 81.6047C62.07 81.6047 59.655 79.2658 59.5068 76.3401L59.5 76.0549L59.5068 75.7698C59.655 72.8441 62.07 70.5051 65.043 70.5051L65.3291 70.512C68.2642 70.6612 70.5859 73.0932 70.5859 76.0549Z" fill="white"/>
<defs>
<filter id="filter0_f_5518_2260" x="0" y="0" width="196" height="196" filterUnits="userSpaceOnUse" color-interpolation-filters="sRGB">
<feFlood flood-opacity="0" result="BackgroundImageFix"/>
<feBlend mode="normal" in="SourceGraphic" in2="BackgroundImageFix" result="shape"/>
<feGaussianBlur stdDeviation="20" result="effect1_foregroundBlur_5518_2260"/>
</filter>
<linearGradient id="paint0_linear_5518_2260" x1="52.992" y1="57.69" x2="147.878" y2="64.4087" gradientUnits="userSpaceOnUse">
<stop offset="0" stop-color="#BB0DBA"/>
<stop offset="0.488034" stop-color="#5C18DD"/>
<stop offset="1" stop-color="#0099AD"/>
</linearGradient>
<linearGradient id="paint1_linear_5518_2260" x1="63.08" y1="66.725" x2="136.699" y2="71.9378" gradientUnits="userSpaceOnUse">
<stop offset="0" stop-color="#BB0DBA"/>
<stop offset="0.488034" stop-color="#5C18DD"/>
<stop offset="1" stop-color="#0099AD"/>
</linearGradient>
</defs>
</svg>
