<svg width="196" height="196" viewBox="0 0 196 196" fill="none" xmlns="http://www.w3.org/2000/svg">
<g opacity="0.6" filter="url(#filter0_f_5518_2278)">
<circle cx="98" cy="98" r="58" fill="url(#paint0_linear_5518_2278)"/>
</g>
<circle opacity="0.3" cx="98" cy="98" r="43" stroke="url(#paint1_linear_5518_2278)" stroke-width="4"/>
<path d="M56.0508 89.8005V73.4011C56.0508 72.1396 56.84 71.0129 58.0254 70.5817L80.5752 62.3815L80.8262 62.3024C81.4177 62.1444 82.0456 62.1709 82.625 62.3815L105.175 70.5817C106.262 70.9771 107.025 71.9623 107.136 73.1139C107.246 74.2654 106.685 75.3781 105.693 75.9733L96.9004 81.2477V85.6999C96.9004 86.836 96.2582 87.8752 95.2422 88.3835C94.2318 88.8888 93.0236 88.7832 92.1162 88.112L92.1299 88.1227C92.139 88.1294 92.1474 88.1357 92.1553 88.1413C92.1708 88.1523 92.1842 88.1608 92.1943 88.1677C92.2146 88.1812 92.2239 88.1872 92.2207 88.1852C92.2138 88.1811 92.1561 88.1469 92.0391 88.0915C91.8052 87.9807 91.3315 87.7837 90.5479 87.57C88.9764 87.1415 86.1743 86.6501 81.6006 86.6501C77.0266 86.6501 74.2239 87.1414 72.6523 87.57C71.8688 87.7837 71.395 87.9807 71.1611 88.0915C71.0442 88.1469 70.9864 88.1811 70.9795 88.1852C70.9769 88.1868 70.9861 88.1809 71.0059 88.1677C71.016 88.1608 71.0293 88.1524 71.0449 88.1413C71.0528 88.1357 71.0611 88.1294 71.0703 88.1227C71.0749 88.1194 71.08 88.1156 71.085 88.112C71.0861 88.1112 71.0868 88.1099 71.0879 88.1091C70.1802 88.7827 68.9707 88.8894 67.959 88.3835C66.9428 87.8752 66.3008 86.8361 66.3008 85.6999V81.2487L62.0508 78.6989V89.8005C62.0507 91.4572 60.7076 92.8005 59.0508 92.8005C57.394 92.8005 56.0509 91.4572 56.0508 89.8005ZM65.9941 74.068L70.8438 76.9782C71.7474 77.5204 72.3008 78.4967 72.3008 79.5505V81.4831C74.4546 81.0178 77.4632 80.6501 81.6006 80.6501C85.7384 80.6501 88.7465 81.0187 90.9004 81.4841V79.5505C90.9004 78.4967 91.4529 77.5204 92.3564 76.9782L97.2061 74.068L81.5996 68.3923L65.9941 74.068Z" fill="white"/>
<path d="M65.3163 111.477C75.2942 105.906 87.9057 105.906 97.8836 111.477H97.8846C99.4907 112.375 103.542 114.294 106.131 116.67C107.446 117.877 108.89 119.632 109.157 121.921C109.45 124.428 108.249 126.631 106.251 128.416L106.25 128.417C102.942 131.37 98.8958 133.799 93.6502 133.8H69.5506C64.3003 133.8 60.2576 131.369 56.95 128.417V128.416C54.9515 126.631 53.7512 124.428 54.0438 121.921C54.311 119.632 55.7546 117.877 57.0702 116.67C59.6592 114.294 63.7092 112.375 65.3153 111.477H65.3163ZM114.173 112.226C117.253 111.411 120.464 111.195 123.63 111.591C126.796 111.987 129.855 112.988 132.64 114.537L133.193 114.854L133.203 114.86L134.381 115.529C135.843 116.357 138.008 117.633 139.526 119.118C140.572 120.141 141.75 121.659 141.967 123.647C142.204 125.821 141.223 127.736 139.608 129.274C137.075 131.688 133.851 133.8 129.59 133.8H114.399C112.743 133.8 111.399 132.456 111.399 130.8C111.399 129.143 112.742 127.8 114.399 127.8H129.59C131.666 127.8 133.477 126.828 135.47 124.93L135.471 124.929C135.83 124.586 135.953 124.371 135.992 124.273C135.961 124.186 135.831 123.896 135.33 123.406C133.987 122.092 131.916 121.076 130.143 120.021L129.723 119.781C127.61 118.605 125.289 117.845 122.886 117.545C120.322 117.224 117.721 117.433 115.241 118.157L115.092 118.196C113.548 118.564 111.97 117.659 111.519 116.119C111.055 114.529 111.968 112.862 113.558 112.397L114.173 112.226ZM94.9579 116.715C86.7983 112.16 76.4015 112.159 68.242 116.715L68.243 116.716C65.9828 117.979 63.0302 119.344 61.1268 121.091C60.1964 121.944 60.021 122.46 60.0028 122.616C59.9988 122.65 59.9908 122.723 60.0692 122.89C60.1612 123.086 60.3918 123.446 60.9461 123.941L61.4569 124.386C64.0097 126.548 66.5472 127.8 69.5506 127.8H93.6502C96.8498 127.799 99.527 126.375 102.254 123.941L102.447 123.762C102.864 123.358 103.05 123.062 103.131 122.89C103.209 122.723 103.201 122.65 103.197 122.616C103.179 122.46 103.004 121.944 102.074 121.091C100.171 119.344 97.218 117.979 94.9579 116.716V116.715ZM119.754 76.658C120.361 76.4909 121.008 76.5192 121.602 76.742L138.002 82.8914C139.099 83.3029 139.857 84.3155 139.941 85.4842C140.026 86.653 139.421 87.7641 138.394 88.3289L132.495 91.5731V95.2039C132.495 98.3722 131.236 101.411 128.996 103.651C126.756 105.891 123.718 107.15 120.55 107.15C117.381 107.15 114.343 105.891 112.102 103.651C109.862 101.411 108.603 98.3722 108.603 95.2039V91.5731L102.704 88.3289C101.677 87.7641 101.073 86.653 101.157 85.4842C101.242 84.3155 101.999 83.3029 103.097 82.8914L119.496 76.742L119.754 76.658ZM66.3006 87.2957V83.6502C66.3008 81.9935 67.6439 80.6502 69.3006 80.6502C70.9573 80.6503 72.3005 81.9935 72.3006 83.6502V87.2957C72.3008 92.7862 76.5659 97.0496 81.6004 97.0496C86.6349 97.0495 90.9 92.7861 90.9002 87.2957V83.6502C90.9004 81.9935 92.2435 80.6502 93.9002 80.6502C95.5569 80.6504 96.9001 81.9936 96.9002 83.6502V87.2957C96.9 95.8921 90.1526 103.05 81.6004 103.05C73.0482 103.05 66.3008 95.8922 66.3006 87.2957ZM120.55 95.576C117.677 95.576 115.807 95.8376 114.671 96.0926C114.859 97.3405 115.441 98.5046 116.345 99.408C117.46 100.523 118.973 101.15 120.55 101.15C122.127 101.15 123.639 100.523 124.754 99.408C125.657 98.5044 126.24 97.34 126.429 96.0916C125.292 95.8373 123.422 95.576 120.55 95.576ZM111.314 86.2166L113.05 87.1717C114.008 87.699 114.603 88.7067 114.603 89.8006V90.0018C116.119 89.753 118.066 89.576 120.55 89.576C123.033 89.576 124.98 89.7527 126.495 90.0008V89.8006C126.495 88.7066 127.091 87.699 128.05 87.1717L129.784 86.2176L120.549 82.7537L111.314 86.2166Z" fill="white"/>
<defs>
<filter id="filter0_f_5518_2278" x="0" y="0" width="196" height="196" filterUnits="userSpaceOnUse" color-interpolation-filters="sRGB">
<feFlood flood-opacity="0" result="BackgroundImageFix"/>
<feBlend mode="normal" in="SourceGraphic" in2="BackgroundImageFix" result="shape"/>
<feGaussianBlur stdDeviation="20" result="effect1_foregroundBlur_5518_2278"/>
</filter>
<linearGradient id="paint0_linear_5518_2278" x1="52.992" y1="57.69" x2="147.878" y2="64.4087" gradientUnits="userSpaceOnUse">
<stop stop-color="#BB0DBA"/>
<stop offset="0.488034" stop-color="#5C18DD"/>
<stop offset="1" stop-color="#0099AD"/>
</linearGradient>
<linearGradient id="paint1_linear_5518_2278" x1="63.08" y1="66.725" x2="136.699" y2="71.9378" gradientUnits="userSpaceOnUse">
<stop stop-color="#BB0DBA"/>
<stop offset="0.488034" stop-color="#5C18DD"/>
<stop offset="1" stop-color="#0099AD"/>
</linearGradient>
</defs>
</svg>
