<svg width="196" height="196" viewBox="0 0 196 196" fill="none" xmlns="http://www.w3.org/2000/svg">
<g opacity="0.6" filter="url(#filter0_f_5518_2288)">
<circle cx="98" cy="98" r="58" fill="url(#paint0_linear_5518_2288)"/>
</g>
<circle opacity="0.3" cx="98" cy="98" r="43" stroke="url(#paint1_linear_5518_2288)" stroke-width="4"/>
<path d="M94.2497 75.5L93.8776 75.5088C92.0242 75.6008 90.2655 76.3779 88.947 77.6963L88.6901 77.9658C87.4443 79.3416 86.7497 81.1351 86.7497 83V94.25L86.7546 94.4355C86.8005 95.3625 87.189 96.242 87.8483 96.9014C88.5077 97.5607 89.3872 97.9492 90.3141 97.9951L90.4997 98C91.4323 98 92.3293 97.6524 93.0173 97.0293L93.152 96.9014C93.8112 96.242 94.1999 95.3624 94.2458 94.4355L94.2497 94.25V86.75H124.25L132.838 78.125C133.492 77.4662 133.878 76.5894 133.924 75.666L133.927 75.4814C133.927 74.4907 133.536 73.5395 132.838 72.8369L123.163 63.125C122.814 62.7735 122.399 62.4941 121.942 62.3037C121.485 62.1134 120.995 62.0156 120.5 62.0156C120.005 62.0157 119.514 62.1134 119.057 62.3037C118.6 62.4941 118.186 62.7736 117.838 63.125L105.5 75.5H94.2497V69.5H103.009L113.589 58.8887C114.493 57.9801 115.567 57.2586 116.751 56.7656L117.2 56.5908C118.257 56.2105 119.374 56.0157 120.5 56.0156L120.982 56.0273C121.944 56.075 122.894 56.2648 123.8 56.5908L124.25 56.7656L124.69 56.9619C125.701 57.443 126.623 58.0951 127.414 58.8906L137.089 68.6025L137.092 68.6074L137.424 68.957C139.032 70.7432 139.927 73.0665 139.927 75.4814C139.927 78.0571 138.908 80.5278 137.092 82.3545L137.09 82.3584L131.223 88.25H134V98C134 100.586 132.973 103.066 131.144 104.895C129.803 106.236 128.11 107.143 126.283 107.532C125.893 109.36 124.986 111.053 123.644 112.395C122.303 113.736 120.61 114.643 118.783 115.032C118.393 116.86 117.486 118.553 116.144 119.895C114.316 121.723 111.835 122.75 109.25 122.75H96.735L82.405 137.08L82.404 137.079C81.5013 137.985 80.4301 138.704 79.2497 139.196C78.0615 139.691 76.7868 139.946 75.4997 139.946C74.2127 139.946 72.9387 139.691 71.7507 139.196C70.5664 138.703 69.4912 137.981 68.5866 137.071V137.072L58.9118 127.359L58.9069 127.354C57.2047 125.642 56.2023 123.363 56.0837 120.963L56.072 120.481L56.0837 119.999C56.2024 117.599 57.2047 115.32 58.9069 113.607L65.7497 106.765V91.7646L85.2497 72.2646V72.9385C87.7181 70.7303 90.9203 69.5001 94.2497 69.5V75.5ZM71.7497 109.25L63.1628 117.837L63.0349 117.972C62.4163 118.659 62.072 119.553 62.072 120.481C62.072 121.472 62.4644 122.422 63.1628 123.125L72.8376 132.837C73.1861 133.188 73.6005 133.468 74.0573 133.658C74.457 133.825 74.8826 133.921 75.3141 133.942L75.4997 133.946C75.9328 133.946 76.3625 133.872 76.7692 133.726L76.9421 133.658C77.399 133.468 77.8142 133.188 78.1628 132.837L94.2497 116.75H109.25L109.436 116.745C110.301 116.702 111.125 116.361 111.767 115.779L111.902 115.651C112.561 114.992 112.95 114.112 112.996 113.186L113 113V109.25H116.75L116.936 109.245C117.801 109.202 118.625 108.861 119.267 108.279L119.402 108.151C120.061 107.492 120.45 106.612 120.496 105.686L120.5 105.5V101.75H124.25L124.436 101.745C125.301 101.702 126.125 101.361 126.767 100.779L126.902 100.651C127.605 99.9482 128 98.9944 128 98V94.25H101.75V98L101.741 98.3721C101.649 100.226 100.872 101.984 99.5534 103.303L99.2839 103.56C97.9998 104.722 96.352 105.404 94.6218 105.49L94.2497 105.5H86.7497L86.3776 105.49C84.6477 105.404 83.0004 104.722 81.7165 103.56L81.447 103.303C80.1285 101.984 79.3515 100.226 79.2595 98.3721L79.2497 98V86.75L71.7497 94.25V109.25Z" fill="white"/>
<defs>
<filter id="filter0_f_5518_2288" x="0" y="0" width="196" height="196" filterUnits="userSpaceOnUse" color-interpolation-filters="sRGB">
<feFlood flood-opacity="0" result="BackgroundImageFix"/>
<feBlend mode="normal" in="SourceGraphic" in2="BackgroundImageFix" result="shape"/>
<feGaussianBlur stdDeviation="20" result="effect1_foregroundBlur_5518_2288"/>
</filter>
<linearGradient id="paint0_linear_5518_2288" x1="52.992" y1="57.69" x2="147.878" y2="64.4087" gradientUnits="userSpaceOnUse">
<stop stop-color="#BB0DBA"/>
<stop offset="0.488034" stop-color="#5C18DD"/>
<stop offset="1" stop-color="#0099AD"/>
</linearGradient>
<linearGradient id="paint1_linear_5518_2288" x1="63.08" y1="66.725" x2="136.699" y2="71.9378" gradientUnits="userSpaceOnUse">
<stop stop-color="#BB0DBA"/>
<stop offset="0.488034" stop-color="#5C18DD"/>
<stop offset="1" stop-color="#0099AD"/>
</linearGradient>
</defs>
</svg>
