<svg width="196" height="196" viewBox="0 0 196 196" fill="none" xmlns="http://www.w3.org/2000/svg">
<g opacity="0.6" filter="url(#filter0_f_5518_1968)">
<circle cx="98" cy="98" r="58" fill="url(#paint0_linear_5518_1968)"/>
</g>
<circle opacity="0.3" cx="98" cy="98" r="43" stroke="url(#paint1_linear_5518_1968)" stroke-width="4"/>
<path d="M105.5 56.75C113.148 56.75 120.568 59.3472 126.547 64.1162C132.525 68.8853 136.707 75.5436 138.406 83C138.967 85.4606 139.25 87.9763 139.25 90.5H105.5V56.75ZM111.5 84.5H132.592L132.557 84.333C131.159 78.2024 127.721 72.7278 122.806 68.8066C119.478 66.1517 115.605 64.3164 111.5 63.4072V84.5Z" fill="white"/>
<path d="M82.9824 72.5978C87.9244 71.4687 93.0574 71.4674 98 72.5939V98.0002H123.406C124.462 102.632 124.528 107.434 123.6 112.093C122.672 116.752 120.77 121.163 118.021 125.036C115.271 128.91 111.734 132.16 107.642 134.572C103.55 136.985 98.994 138.507 94.2734 139.038C89.5528 139.569 84.773 139.098 80.2471 137.654C75.7212 136.211 71.5506 133.829 68.0088 130.663C64.4671 127.498 61.6335 123.62 59.6934 119.284C57.7532 114.948 56.7501 110.251 56.75 105.5C56.75 100.431 57.8917 95.4261 60.0908 90.8586C62.29 86.2911 65.4903 82.2777 69.4531 79.1164C73.416 75.9551 78.0404 73.727 82.9824 72.5978ZM92 77.7912C89.4291 77.652 86.8432 77.8705 84.3184 78.4474C80.2551 79.3759 76.4526 81.2076 73.1943 83.8068C69.936 86.4061 67.3053 89.7066 65.4971 93.4621C63.6889 97.2176 62.75 101.332 62.75 105.5L62.7598 106.232C62.8562 109.887 63.6744 113.491 65.1699 116.833C66.7652 120.399 69.0956 123.587 72.0078 126.19C74.9201 128.793 78.349 130.752 82.0703 131.939C85.7915 133.125 89.7213 133.512 93.6025 133.075C97.484 132.639 101.23 131.387 104.595 129.403C107.959 127.42 110.867 124.748 113.128 121.564C115.389 118.379 116.952 114.752 117.715 110.921C118.17 108.638 118.332 106.313 118.207 104H92V77.7912Z" fill="white"/>
<defs>
<filter id="filter0_f_5518_1968" x="0" y="0" width="196" height="196" filterUnits="userSpaceOnUse" color-interpolation-filters="sRGB">
<feFlood flood-opacity="0" result="BackgroundImageFix"/>
<feBlend mode="normal" in="SourceGraphic" in2="BackgroundImageFix" result="shape"/>
<feGaussianBlur stdDeviation="20" result="effect1_foregroundBlur_5518_1968"/>
</filter>
<linearGradient id="paint0_linear_5518_1968" x1="52.992" y1="57.69" x2="147.878" y2="64.4087" gradientUnits="userSpaceOnUse">
<stop stop-color="#BB0DBA"/>
<stop offset="0.488034" stop-color="#5C18DD"/>
<stop offset="1" stop-color="#0099AD"/>
</linearGradient>
<linearGradient id="paint1_linear_5518_1968" x1="63.08" y1="66.725" x2="136.699" y2="71.9378" gradientUnits="userSpaceOnUse">
<stop stop-color="#BB0DBA"/>
<stop offset="0.488034" stop-color="#5C18DD"/>
<stop offset="1" stop-color="#0099AD"/>
</linearGradient>
</defs>
</svg>
