<svg width="196" height="196" viewBox="0 0 196 196" fill="none" xmlns="http://www.w3.org/2000/svg">
<g opacity="0.6" filter="url(#filter0_f_5518_1929)">
<circle cx="98" cy="98" r="58" fill="url(#paint0_linear_5518_1929)"/>
</g>
<circle opacity="0.3" cx="98" cy="98" r="43" stroke="url(#paint1_linear_5518_1929)" stroke-width="4"/>
<path d="M114.495 105.227C113.774 105.42 113.16 105.891 112.787 106.537C112.414 107.183 112.313 107.951 112.506 108.672C112.699 109.392 113.171 110.006 113.817 110.379C114.463 110.752 115.23 110.853 115.951 110.66L126.818 107.749C127.538 107.556 128.152 107.084 128.525 106.438C128.898 105.792 128.999 105.025 128.806 104.304C128.613 103.583 128.142 102.969 127.496 102.596C126.85 102.223 126.082 102.122 125.362 102.315L114.495 105.227ZM56.327 94.6076C55.3617 91.0051 55.867 87.1667 57.7318 83.9367C59.5966 80.7068 62.6681 78.3499 66.2707 77.3847L115.171 64.2819C118.773 63.3166 122.612 63.822 125.842 65.6868C129.071 67.5516 131.428 70.6231 132.394 74.2256L139.673 101.392C140.638 104.995 140.133 108.833 138.268 112.063C136.403 115.293 133.332 117.65 129.729 118.615L80.8292 131.718C77.2267 132.683 73.3883 132.178 70.1583 130.313C66.9284 128.448 64.5716 125.377 63.6063 121.774L56.327 94.6076ZM127.688 78.3982L126.96 75.6815C126.381 73.52 124.967 71.6771 123.029 70.5582C121.091 69.4393 118.788 69.1361 116.627 69.7153L67.7265 82.818C65.565 83.3972 63.7221 84.8113 62.6032 86.7492C61.4843 88.6872 61.1811 90.9903 61.7603 93.1518L62.4882 95.8684L127.688 78.3982ZM63.9441 101.302L69.0396 120.318C69.6188 122.48 71.0329 124.323 72.9708 125.442C74.9088 126.561 77.2119 126.864 79.3734 126.285L128.273 113.182C130.435 112.603 132.278 111.189 133.397 109.251C134.516 107.313 134.819 105.01 134.24 102.848L129.144 83.8315L63.9441 101.302Z" fill="white"/>
<defs>
<filter id="filter0_f_5518_1929" x="0" y="0" width="196" height="196" filterUnits="userSpaceOnUse" color-interpolation-filters="sRGB">
<feFlood flood-opacity="0" result="BackgroundImageFix"/>
<feBlend mode="normal" in="SourceGraphic" in2="BackgroundImageFix" result="shape"/>
<feGaussianBlur stdDeviation="20" result="effect1_foregroundBlur_5518_1929"/>
</filter>
<linearGradient id="paint0_linear_5518_1929" x1="52.992" y1="57.69" x2="147.878" y2="64.4087" gradientUnits="userSpaceOnUse">
<stop stop-color="#BB0DBA"/>
<stop offset="0.488034" stop-color="#5C18DD"/>
<stop offset="1" stop-color="#0099AD"/>
</linearGradient>
<linearGradient id="paint1_linear_5518_1929" x1="63.08" y1="66.725" x2="136.699" y2="71.9378" gradientUnits="userSpaceOnUse">
<stop stop-color="#BB0DBA"/>
<stop offset="0.488034" stop-color="#5C18DD"/>
<stop offset="1" stop-color="#0099AD"/>
</linearGradient>
</defs>
</svg>
