<svg width="196" height="196" viewBox="0 0 196 196" fill="none" xmlns="http://www.w3.org/2000/svg">
<g filter="url(#filter0_d_5518_1940)">
<g opacity="0.6" filter="url(#filter1_f_5518_1940)">
<circle cx="98" cy="98" r="58" fill="url(#paint0_linear_5518_1940)"/>
</g>
<circle opacity="0.3" cx="98" cy="98" r="43" stroke="url(#paint1_linear_5518_1940)" stroke-width="4"/>
<path d="M125 68C125 63.4437 121.306 59.75 116.75 59.75H79.25C74.6937 59.75 71 63.4437 71 68V128C71 132.556 74.6937 136.25 79.25 136.25H116.75C121.306 136.25 125 132.556 125 128V68ZM131 128C131 135.87 124.62 142.25 116.75 142.25H79.25C71.3799 142.25 65 135.87 65 128V68C65 60.1299 71.3799 53.75 79.25 53.75H116.75C124.62 53.75 131 60.1299 131 68V128Z" fill="white"/>
<path d="M105.5 121.25C107.157 121.25 108.5 122.593 108.5 124.25C108.5 125.907 107.157 127.25 105.5 127.25H90.5C88.8431 127.25 87.5 125.907 87.5 124.25C87.5 122.593 88.8431 121.25 90.5 121.25H105.5Z" fill="white"/>
</g>
<defs>
<filter id="filter0_d_5518_1940" x="36" y="40" width="124" height="124" filterUnits="userSpaceOnUse" color-interpolation-filters="sRGB">
<feFlood flood-opacity="0" result="BackgroundImageFix"/>
<feColorMatrix in="SourceAlpha" type="matrix" values="0 0 0 0 0 0 0 0 0 0 0 0 0 0 0 0 0 0 127 0" result="hardAlpha"/>
<feOffset dy="4"/>
<feGaussianBlur stdDeviation="2"/>
<feComposite in2="hardAlpha" operator="out"/>
<feColorMatrix type="matrix" values="0 0 0 0 0 0 0 0 0 0 0 0 0 0 0 0 0 0 0.25 0"/>
<feBlend mode="normal" in2="BackgroundImageFix" result="effect1_dropShadow_5518_1940"/>
<feBlend mode="normal" in="SourceGraphic" in2="effect1_dropShadow_5518_1940" result="shape"/>
</filter>
<filter id="filter1_f_5518_1940" x="0" y="0" width="196" height="196" filterUnits="userSpaceOnUse" color-interpolation-filters="sRGB">
<feFlood flood-opacity="0" result="BackgroundImageFix"/>
<feBlend mode="normal" in="SourceGraphic" in2="BackgroundImageFix" result="shape"/>
<feGaussianBlur stdDeviation="20" result="effect1_foregroundBlur_5518_1940"/>
</filter>
<linearGradient id="paint0_linear_5518_1940" x1="52.992" y1="57.69" x2="147.878" y2="64.4087" gradientUnits="userSpaceOnUse">
<stop stop-color="#BB0DBA"/>
<stop offset="0.488034" stop-color="#5C18DD"/>
<stop offset="1" stop-color="#0099AD"/>
</linearGradient>
<linearGradient id="paint1_linear_5518_1940" x1="63.08" y1="66.725" x2="136.699" y2="71.9378" gradientUnits="userSpaceOnUse">
<stop stop-color="#BB0DBA"/>
<stop offset="0.488034" stop-color="#5C18DD"/>
<stop offset="1" stop-color="#0099AD"/>
</linearGradient>
</defs>
</svg>
