<svg width="20" height="20" viewBox="0 0 20 20" fill="none" xmlns="http://www.w3.org/2000/svg">
<path d="M4.35124 2.40341C3.81336 1.86553 2.94129 1.86553 2.40342 2.40341C1.86554 2.94128 1.86554 3.81335 2.40341 4.35123L8.05219 10L2.40341 15.6488C1.86553 16.1866 1.86553 17.0587 2.40341 17.5966C2.94128 18.1345 3.81335 18.1345 4.35123 17.5966L10 11.9478L15.6486 17.5964C16.1865 18.1343 17.0585 18.1343 17.5964 17.5964C18.1343 17.0585 18.1343 16.1865 17.5964 15.6486L11.9478 10L17.5964 4.35142C18.1343 3.81355 18.1343 2.94148 17.5964 2.4036C17.0585 1.86573 16.1865 1.86573 15.6486 2.4036L10 8.05218L4.35124 2.40341Z" fill="#EF66EE"/>
</svg>
