<svg width="178" height="54" viewBox="0 0 178 54" fill="none" xmlns="http://www.w3.org/2000/svg">
<path d="M48.0595 10.3381C48.8444 10.2338 49.6159 10.1576 50.3783 10.104C52.0776 9.98454 53.7318 9.97726 55.3872 10.0186C57.0537 10.0608 58.7488 10.1504 60.4562 10.2239C61.4133 10.1226 61.4653 10.0951 61.7995 10.0596C62.0672 10.0271 62.3157 9.99789 62.5514 9.97332C62.7852 9.94885 63.0095 9.92793 63.2134 9.91501C63.4122 9.90266 63.6047 9.89638 63.6993 9.91421C62.9686 9.31152 66.0903 11.6993 60.0532 8.17333C60.0718 -1.47448 60.9704 3.87766 60.5714 2.54444C60.5049 2.46493 60.402 2.44961 59.8401 2.54302C59.3693 2.60853 58.7739 2.67478 58.1257 2.73644C57.5035 2.79622 56.8284 2.85417 56.1093 2.91975C55.4256 2.98216 54.7025 3.05121 53.9385 3.13736C53.8764 3.14438 53.8133 3.15158 53.7497 3.15892C53.0216 3.24315 52.3163 3.32839 51.6219 3.42548C50.7781 3.54614 49.8642 3.68355 48.944 3.90235C46.9113 4.43613 45.2956 4.91413 43.6967 5.36582C42.0068 5.84246 40.371 6.28356 38.3899 6.66813C36.8595 6.96409 35.1231 7.22618 32.9984 7.42082C32.0169 7.51044 30.9525 7.5852 29.7883 7.63899C29.0477 7.67319 28.3076 7.70859 27.5695 7.74423C25.7426 7.83247 23.9284 7.92207 22.1472 8.00003C20.2881 8.08124 18.5001 8.14936 16.733 8.19314C16.2816 8.20733 15.4641 8.15617 14.7604 8.11576C14.0018 8.07044 13.2362 8.0223 12.4871 7.98105C11.6966 7.93726 10.9175 7.89974 10.151 7.8733C9.33566 7.84532 8.53064 7.82914 7.73962 7.83424C6.87198 7.84124 6.02544 7.86746 5.13147 7.96205C4.11749 8.17966 3.092 7.94402 1.17093 9.49529C0.0653992 16.7872 1.40541 13.3845 1.40793 15.0575C1.52226 15.3031 1.61552 15.5129 1.71222 15.7326C1.91698 16.2015 2.11732 16.6124 2.31856 16.9883C2.68994 17.6812 3.05724 18.2427 3.43124 18.7435C3.86853 19.3285 4.31367 19.827 4.78021 20.3327C5.22321 20.8129 5.68628 21.3002 6.1799 21.8725C6.56253 22.3105 7.04651 22.9247 7.38208 23.3887C7.77692 23.9926 8.16571 24.6675 8.58408 25.5118C8.80034 25.9482 9.02097 26.4236 9.24818 26.9436C9.37209 27.2271 9.4951 27.507 9.61757 27.7831C9.97314 28.5848 10.3251 29.3554 10.6832 30.0975C11.0706 30.9005 11.465 31.6703 11.8759 32.4111C12.314 33.201 12.7707 33.9582 13.2565 34.687C13.7525 35.432 14.3213 36.2037 14.8793 36.8716C15.3432 37.4301 15.8864 38.0185 16.4012 38.5266C16.9175 39.0385 17.4487 39.5245 17.9913 39.9985C18.5142 40.4552 19.0479 40.9006 19.5899 41.348C20.0567 41.7335 20.5297 42.1203 21.0063 42.5185C21.0538 42.5582 21.102 42.5988 21.151 42.6403C21.5895 43.0122 22.0847 43.4531 22.6043 43.9638C23.0365 44.3912 23.4551 44.8281 23.9037 45.3661C24.2135 45.745 24.5977 46.1716 24.9683 46.5431C25.3241 46.9019 25.6984 47.2508 26.0846 47.5922C26.4526 47.9176 26.8313 48.2363 27.2151 48.5521C27.5845 48.8562 27.9587 49.1577 28.332 49.4608C28.6944 49.755 29.0559 50.0507 29.411 50.3523C29.762 50.6508 30.0893 50.9381 30.4262 51.2564C30.6183 51.4383 30.7925 51.6107 30.9683 51.7928C31.145 51.9761 31.3159 52.1615 31.486 52.3547C31.6557 52.5475 31.8175 52.7402 31.9842 52.946C30.5551 54.59 35.9298 50.4434 34.0388 51.4072C33.9093 51.1723 33.7802 50.9348 33.6539 50.6986C33.5265 50.4605 33.4042 50.2285 33.2764 49.9821C32.9846 49.4199 32.694 48.8566 32.4062 48.2954C32.1158 47.729 31.8283 47.1647 31.5446 46.6042C31.256 46.0339 30.9715 45.4677 30.6926 44.9082C30.4059 44.3332 30.125 43.7652 29.8514 43.2068C29.5669 42.6261 29.2903 42.0558 29.0232 41.499C28.7411 40.9108 28.4697 40.3376 28.211 39.7832C27.6888 38.6648 27.1976 37.6215 26.7782 36.6934C26.4376 35.9406 26.1405 35.2572 25.8988 34.6566C25.7534 34.2953 25.6018 33.9344 25.4454 33.5746C25.0019 32.5542 24.5189 31.5407 24.0202 30.5375C23.5245 29.5405 23.0133 28.5535 22.5085 27.5784C21.9939 26.5848 21.486 25.6035 21.0054 24.6372C20.4988 23.6173 20.0329 22.6433 19.6035 21.656C19.3621 21.102 19.1547 20.58 18.9577 20.0366C18.7499 19.4646 18.5629 18.899 18.3913 18.3489C18.2043 17.7491 18.0353 17.1679 17.8803 16.615C17.7849 16.2742 17.6948 15.9442 17.6099 15.6265C17.5386 15.3594 17.4671 15.1022 17.3952 14.8549C17.2058 14.2031 17.0127 13.6204 16.8186 13.1063C16.6573 12.6787 16.4957 12.2984 16.3382 11.963C16.16 11.5848 15.9791 11.4452 15.8629 11.4841C15.8628 11.4841 15.8627 11.4841 15.8626 11.4841C15.7168 11.5338 15.6687 11.854 15.7968 12.3551C15.8731 12.6543 15.9469 12.9738 16.017 13.3125C16.1293 13.8544 16.2318 14.4457 16.3251 15.0823C16.408 15.6455 16.4837 16.2441 16.5583 16.8761C16.6266 17.4539 16.6941 18.0595 16.7694 18.6921C16.8398 19.2822 16.9171 19.8958 17.0118 20.5319C17.0999 21.1281 17.211 21.7688 17.3397 22.3961C17.3932 22.66 17.4497 22.9284 17.509 23.2005C17.7202 24.1638 17.952 25.012 18.1918 25.7807C18.5841 27.0333 18.9959 28.0728 19.4198 29.019C19.908 30.1055 20.4146 31.0689 20.9706 32.0817C21.4713 32.9932 22.0137 33.9442 22.6265 35.0567C23.1079 35.9312 23.6336 36.9051 24.2098 38.0391C24.6656 38.9375 25.1486 39.9263 25.6599 41.0587C25.8142 41.4004 25.9722 41.7538 26.1342 42.1198C26.2346 42.3466 26.3337 42.5714 26.4318 42.7947C26.692 43.3872 26.9444 43.9676 27.1902 44.5375C27.4461 45.1308 27.6949 45.7128 27.9382 46.2854C28.1903 46.8788 28.4364 47.462 28.6782 48.0374C28.9272 48.6297 29.1716 49.2135 29.4136 49.7917C29.6605 50.3818 29.905 50.9661 30.1483 51.5461C30.1483 51.5461 30.1483 51.5461 30.1483 51.5461C30.2587 51.8074 30.3666 52.0607 30.4819 52.3245C30.5945 52.5832 30.7111 52.8451 30.8244 53.0975C27.471 55.5908 38.5882 48.7955 34.9073 50.679C34.7416 50.4378 34.5598 50.184 34.3732 49.9368C34.1862 49.689 33.9963 49.4483 33.7965 49.2076C33.5962 48.9661 33.3757 48.7151 33.1813 48.5014C32.8433 48.1288 32.4531 47.7322 32.0977 47.3832C31.7399 47.032 31.3818 46.6942 31.0276 46.3638C30.6808 46.0403 30.3377 45.7241 30.0028 45.4106C29.6761 45.1047 29.3572 44.8015 29.0509 44.4975C28.7532 44.2019 28.4675 43.9055 28.199 43.6059C27.925 43.2983 27.7262 43.0618 27.4711 42.7235C27.0432 42.1479 26.5112 41.5099 26.0062 40.9587C25.5139 40.4191 24.9989 39.8981 24.4693 39.3886C23.9658 38.9039 23.449 38.4295 22.9258 37.9571C22.5352 37.6043 22.141 37.2526 21.7464 36.8979C21.6371 36.7996 21.5297 36.7021 21.4242 36.6052C20.9182 36.1405 20.4568 35.6904 20.0391 35.2475C19.5764 34.7554 19.209 34.3262 18.8324 33.8308C18.8324 33.8308 18.8324 33.8307 18.8324 33.8308C18.3311 33.1673 17.9419 32.565 17.5559 31.9077C17.1483 31.2099 16.7901 30.5108 16.4604 29.8101C16.1141 29.0735 15.7994 28.335 15.4945 27.5862C15.187 26.831 14.8896 26.0652 14.58 25.2763C14.2809 24.5143 13.9709 23.7308 13.6258 22.9124C13.3081 22.1571 12.9409 21.3353 12.543 20.5215C12.1136 19.7136 11.8413 19.2392 11.4684 18.5905C11.1409 18.0239 10.7943 17.4395 10.4301 16.8388C10.093 16.283 9.73863 15.7099 9.36711 15.1188C9.02278 14.5708 8.6651 14.0098 8.29227 13.4287C7.9458 12.8879 7.59259 12.3421 7.23798 11.783C6.67506 12.4607 7.25281 7.47428 5.73882 14.0632C4.67911 14.7769 5.29895 14.2137 5.80315 14.1921C6.05417 14.1368 6.33931 14.0879 6.64162 14.0449C6.98383 13.9966 7.3358 13.9601 7.69165 13.9319C8.40033 13.8756 9.11612 13.852 9.80943 13.8455C10.5613 13.8389 11.2938 13.8532 12.004 13.8791C12.7726 13.907 13.5199 13.9496 14.2493 13.997C15.0464 14.0439 15.7893 14.1173 16.733 14.1332C18.7835 14.1398 20.6365 14.1818 22.3584 14.2517C24.3097 14.3295 26.1297 14.4418 28.0047 14.5469C29.7931 14.6464 31.6308 14.7391 33.6743 14.7697C35.3885 14.7949 37.2475 14.7764 39.3407 14.6698C41.0496 14.5825 42.9139 14.4365 44.9821 14.1996C45.5292 14.137 46.0928 14.0675 46.6696 13.9912C47.9528 13.8216 49.2871 13.622 50.5888 13.4062C51.0832 13.3288 51.6933 13.2727 52.4351 13.2104C53.1479 13.1514 53.9091 13.0953 54.6931 13.0308C55.4699 12.9669 56.2725 12.8951 57.0985 12.8037C57.9204 12.7123 58.7632 12.603 59.6488 12.452C60.5291 12.2997 61.4444 12.1142 62.4643 11.8115C63.4043 11.5244 64.7883 11.051 66.0667 10.1004C66.0273 8.34531 67.589 13.9317 67.6513 2.92709C60.6433 -1.19759 63.4592 1.55544 62.1562 0.928317C61.7408 1.0074 61.4321 1.08534 61.1358 1.16189C60.8433 1.23838 60.5747 1.31414 60.3196 1.38766C60.0664 1.4607 59.8205 1.53353 59.608 1.59606C59.4706 1.65123 58.981 1.73717 59.5992 1.65413C57.9685 1.86732 56.3846 2.06001 54.7805 2.24181C53.1428 2.42759 51.5196 2.59865 49.9229 2.7576C48.2592 2.92318 46.6243 3.07568 45.0317 3.21744C43.3385 3.36811 41.6931 3.5067 40.1117 3.63463C38.3798 3.77463 36.7244 3.90192 35.1665 4.0156C33.3729 4.14637 31.6977 4.25976 30.1976 4.34796C29.5274 4.38723 28.8733 4.43013 28.2498 4.47215C27.4011 4.52938 26.5577 4.59674 25.6905 4.67492C24.2548 4.80426 22.7822 4.96157 21.2803 5.1336C19.8658 5.29542 18.4252 5.47019 16.9639 5.64206C15.5714 5.8057 14.1601 5.96662 12.7342 6.10776C11.3635 6.24336 9.97931 6.36058 8.58621 6.44218C7.2162 6.52165 5.93051 6.56547 4.52003 6.56239C2.75661 0.664617 1.3839 20.2816 2.66281 14.5194C3.05 14.7225 3.28281 14.8229 3.52495 14.9322C3.76006 15.0365 3.97417 15.1283 4.17972 15.2166C4.384 15.3043 4.57838 15.3876 4.7605 15.4673C4.94145 15.5465 5.11096 15.6226 5.24863 15.6879C5.42162 15.7711 5.40633 15.7659 5.41765 15.768C5.97481 16.1197 6.68384 16.5208 7.29825 16.8306C7.93121 17.1519 8.57227 17.4432 9.21405 17.7081C9.85081 17.971 10.488 18.208 11.1199 18.4248C11.7475 18.6402 12.3701 18.8358 12.9842 19.0183C13.5947 19.1997 14.1968 19.368 14.7892 19.5298C15.3802 19.6912 15.9533 19.8437 16.5271 19.9983C17.6734 20.3076 18.8346 20.6104 20.0075 20.9056C22.0814 21.4275 24.1994 21.9658 26.3755 22.5155C29.5633 23.3208 32.8587 24.1455 36.2285 24.9559C39.4667 25.7347 42.7731 26.5005 46.1152 27.2263C49.4047 27.9409 52.7285 28.6168 56.0531 29.2311C59.3965 29.8489 62.7404 30.4044 66.0504 30.8765C68.3369 31.2026 70.6029 31.4884 72.8496 31.7292C73.9128 31.8432 75.0015 31.9569 76.1071 32.069C81.4271 32.6131 87.3475 33.0372 93.1981 33.2748C99.0448 33.5173 104.892 33.5891 110.25 33.552C117.015 33.5058 123 33.2968 127.24 33.0908C127.317 33.087 127.392 33.0833 127.468 33.0796C135.282 32.6813 139.095 32.4302 144.177 32.3992C146.622 32.3814 149.359 32.4067 152.973 32.4695C155.404 32.5119 158.182 32.4889 161.099 32.4001C165.855 32.2548 170.98 31.9387 175.585 31.4452C179.324 31.0497 178.481 30.5034 174.708 30.254C169.193 29.8966 164.67 30.2136 161.821 29.5724C161.56 29.5137 161.305 29.4566 161.057 29.4013C155.895 28.2536 153.378 27.8602 146.565 28.7139C145.701 28.8217 144.893 28.8906 144.131 28.9287C138.592 29.2045 135.538 27.8618 131.886 28.0572C130.21 28.1453 129.221 28.3687 127.252 28.5461C124.647 28.7638 120.307 28.9785 110.424 28.3595C109.261 28.2834 108.023 28.1935 106.702 28.0863C101.882 27.6949 97.5766 27.2697 93.7108 26.8312C86.9936 26.068 81.6769 25.2823 77.1731 24.532C73.2917 23.8831 70.1105 23.3206 67.3486 22.8083C67.0984 22.7619 66.8517 22.7158 66.6084 22.6701C64.2504 22.2275 61.1055 21.7417 57.5192 21.1691C54.4892 20.6858 51.144 20.1399 47.6934 19.5147C44.4729 18.9317 41.1609 18.2794 37.9286 17.5573C35.0996 16.9257 32.3315 16.2408 29.7397 15.513C29.2731 15.382 28.787 15.2459 28.2857 15.1056C25.5095 14.3289 22.2617 13.4199 18.7339 12.375C18.1572 12.2043 17.5737 12.0349 17.0056 11.8673C16.4466 11.7025 15.8951 11.5373 15.3546 11.3671C14.8224 11.1996 14.3011 11.0272 13.794 10.8459C13.2928 10.6667 12.8053 10.4787 12.3339 10.2785C11.8662 10.08 11.4143 9.86951 10.9787 9.64424C10.5216 9.40625 10.183 9.21412 9.72557 8.92606C9.36714 8.6977 8.95432 8.4949 8.72743 8.38594C8.46504 8.2604 8.23212 8.15594 8.00706 8.05644C7.78314 7.95761 7.57056 7.8659 7.36798 7.77829C7.16599 7.69093 6.97313 7.60741 6.80276 7.53117C6.64079 7.45945 6.46764 7.37606 6.46152 7.3706C7.32883 1.56886 5.4951 20.3353 4.52002 14.6584C6.03267 14.6647 7.64273 14.6079 9.12184 14.5159C10.6665 14.4207 12.17 14.2862 13.6201 14.1371C15.1475 13.9797 16.6158 13.8063 18.0139 13.6396C19.5349 13.458 20.9727 13.2847 22.3132 13.1386C23.8546 12.9701 25.2672 12.8381 26.5279 12.7526C27.363 12.6957 28.1417 12.658 28.825 12.6407C29.464 12.6245 30.0699 12.6111 30.656 12.5998C32.6665 12.5596 34.2353 12.4809 35.5719 12.3634C37.5373 12.1913 38.9755 11.9381 40.4906 11.6405C41.9019 11.3631 43.3802 11.0492 45.4205 10.7228C46.2071 10.5968 47.0772 10.4687 48.0595 10.3381Z" fill="#5C18DD"/>
</svg>
