<svg width="42" height="42" viewBox="0 0 42 42" fill="none" xmlns="http://www.w3.org/2000/svg">
<g clip-path="url(#clip0_1538_8654)">
<path d="M21 3.5C30.6652 3.5 38.5 11.3348 38.5 21C38.5 30.6652 30.6652 38.5 21 38.5C11.3348 38.5 3.5 30.6652 3.5 21C3.5 11.3348 11.3348 3.5 21 3.5ZM21 10.5C20.5359 10.5 20.0908 10.6844 19.7626 11.0126C19.4344 11.3408 19.25 11.7859 19.25 12.25V21C19.2501 21.4641 19.4345 21.9091 19.7628 22.2372L25.0128 27.4872C25.3428 27.806 25.7849 27.9824 26.2437 27.9784C26.7025 27.9744 27.1415 27.7904 27.4659 27.4659C27.7904 27.1415 27.9744 26.7025 27.9784 26.2437C27.9824 25.7849 27.806 25.3428 27.4872 25.0128L22.75 20.2755V12.25C22.75 11.7859 22.5656 11.3408 22.2374 11.0126C21.9092 10.6844 21.4641 10.5 21 10.5Z" fill="white"/>
</g>
<defs>
<clipPath id="clip0_1538_8654">
<rect width="42" height="42" fill="white"/>
</clipPath>
</defs>
</svg>
