<svg width="42" height="42" viewBox="0 0 42 42" fill="none" xmlns="http://www.w3.org/2000/svg">
<path d="M21 2.625C17.1723 2.62934 13.5026 4.15183 10.7959 6.85844C8.08933 9.56506 6.56684 13.2348 6.5625 17.0625C6.5625 29.4164 19.6875 38.7466 20.247 39.1371C20.4676 39.2917 20.7306 39.3746 21 39.3746C21.2694 39.3746 21.5324 39.2917 21.753 39.1371C22.3125 38.7466 35.4375 29.4164 35.4375 17.0625C35.4332 13.2348 33.9107 9.56506 31.2041 6.85844C28.4974 4.15183 24.8277 2.62934 21 2.625ZM21 11.8125C22.0384 11.8125 23.0534 12.1204 23.9167 12.6973C24.7801 13.2742 25.453 14.0941 25.8504 15.0534C26.2477 16.0127 26.3517 17.0683 26.1491 18.0867C25.9466 19.1051 25.4465 20.0406 24.7123 20.7748C23.9781 21.509 23.0426 22.0091 22.0242 22.2116C21.0058 22.4142 19.9502 22.3102 18.9909 21.9129C18.0316 21.5155 17.2117 20.8426 16.6348 19.9792C16.0579 19.1159 15.75 18.1009 15.75 17.0625C15.75 15.6701 16.3031 14.3348 17.2877 13.3502C18.2723 12.3656 19.6076 11.8125 21 11.8125Z" fill="white"/>
</svg>
