<svg width="286" height="86" viewBox="0 0 286 86" fill="none" xmlns="http://www.w3.org/2000/svg">
<path d="M208.695 16.2763C201.787 15.3556 195.517 15.8079 188.785 16.0929C186.674 15.8472 186.815 15.8464 186.041 15.7591C185.451 15.6914 184.895 15.6326 184.4 15.5995C183.959 15.5704 183.306 15.5491 183.614 15.6699C183.791 15.6729 183.776 15.83 185.203 15.6094C185.634 15.5045 186.074 15.4656 187.186 14.8625C188.059 14.4332 190.057 12.714 190.52 10.2974C191.012 5.77208 189.568 5.41445 189.426 4.82439C188.282 3.38248 188.591 3.86382 188.6 3.75897C188.327 3.36693 190.381 3.92649 192.355 4.0506C194.421 4.25228 196.843 4.43324 199.556 4.74588C202.212 5.06356 204.469 5.30761 207.275 5.9399C217.83 8.61688 221.93 11.0585 238.041 11.9413C245.234 12.2753 252.405 12.6686 259.009 12.8313C262.359 12.7795 267.02 12.3486 270.784 12.2819C272.738 12.2368 274.612 12.2303 276.547 12.3632C277.518 12.4346 278.491 12.5319 279.603 12.7646C280.722 13.0761 281.989 13.1296 284.002 14.9227C285.378 16.3686 285.422 17.6707 285.469 18.3199C285.472 19.0791 285.438 19.0482 285.407 19.3244C285.345 19.7253 285.246 20.0546 285.214 20.1663C285.124 20.4679 285.019 20.7394 284.965 20.8801C284.828 21.2307 284.722 21.4701 284.612 21.7181C284.406 22.1783 284.225 22.5642 284.044 22.9484C283.698 23.688 283.401 24.3276 283.133 24.9403C280.314 31.3266 277.567 32.3026 274.027 37.2366C273.08 38.6779 272.093 40.5072 271.03 42.946C268.286 49.2679 265.702 54.4118 261.986 58.8913C259.043 62.4315 255.661 65.0326 252.145 67.9607C250.829 69.068 249.133 70.5774 247.492 72.5342C244.674 76.0477 240.481 78.7692 237.016 81.9945C236.139 82.8221 235.32 83.7111 234.53 84.6883C234.41 84.8335 234.393 84.8676 234.124 85.1798C234.109 85.1931 234.056 85.2661 233.879 85.414C233.83 85.4537 233.768 85.5022 233.666 85.5661C233.643 85.544 233.553 85.7741 232.692 85.8667C231.638 86.1012 230.463 84.4563 230.622 84.0783C230.642 83.0069 230.681 83.4794 230.703 83.2671C230.806 82.9705 230.798 83.0261 230.826 82.9581C230.873 82.86 230.884 82.8417 230.915 82.7834C230.958 82.7025 231.004 82.6185 231.042 82.548C231.207 82.2487 231.361 81.9708 231.517 81.6833C231.829 81.1088 232.136 80.5299 232.438 79.9479C235.414 74.2147 238.299 68.444 240.574 63.5675C242.1 60.3053 243.422 57.4914 244.287 55.3338C247.233 48.0581 251.589 40.9669 254.398 34.4537C255.892 31.0323 256.838 27.5724 257.6 24.7698C258.262 22.2686 258.967 20.3163 259.643 18.8859C259.929 18.2785 260.219 18.0544 260.406 18.1167C260.406 18.1168 260.406 18.1168 260.406 18.1169C260.64 18.1965 260.718 18.7109 260.512 19.5157C259.46 23.2062 259.337 28.7439 258.034 35.6424C257.946 36.0718 257.854 36.5065 257.759 36.9436C254.515 50.0275 251.475 50.808 244.671 65.6162C244.423 66.1648 244.169 66.7325 243.909 67.3203C241.453 72.8703 239.442 77.7415 237.462 82.4598C237.198 83.0869 236.929 83.7113 236.651 84.3361C236.514 84.645 236.375 84.955 236.243 85.2494C236.212 85.32 236.18 85.3929 236.161 85.4403C236.152 85.4643 236.143 85.4871 236.152 85.4744C236.158 85.4643 236.172 85.4407 236.205 85.3674C236.216 85.3361 236.272 85.2353 236.368 84.9075C236.392 84.8196 236.421 84.7106 236.449 84.5519C236.459 84.401 236.488 84.6495 236.509 83.7658C236.487 83.3817 236.472 82.7826 235.975 81.8992C235.524 81.0083 234.184 80.0868 233.136 80.0051C231.104 79.8472 230.52 80.6648 230.59 80.532C230.486 80.5948 230.405 80.65 230.337 80.6988C230.201 80.7965 230.114 80.8697 230.046 80.9295C229.168 81.8219 229.855 81.0728 229.817 81.0705C230.631 79.8831 231.566 78.689 232.591 77.5697C235.846 74.022 239.444 71.3874 241.762 68.29C244.353 64.806 247.644 61.8993 250.956 58.9335C252.888 57.2012 254.438 55.5941 255.637 54.0075C260.627 47.201 261.684 40.9843 265.738 32.6317C267.232 29.8424 268.526 27.6829 270.248 24.8987C271.09 23.5442 272 22.1177 272.952 20.6367C273.428 19.8968 273.92 19.132 274.393 18.3839C274.634 18.0012 274.863 17.6366 275.065 17.3027C275.159 17.1513 275.255 16.9863 275.301 16.918C275.323 16.8909 275.337 16.8646 275.3 16.9934C275.281 17.0704 275.259 17.1136 275.184 17.4692C275.152 17.6405 275.111 17.8677 275.094 18.2303C275.131 18.7833 274.846 20.2612 276.666 22.2591C278.104 23.3427 277.644 22.683 277.217 22.6379C276.728 22.4812 276.001 22.3405 275.216 22.2298C269.319 21.5214 264.286 22.1509 259.009 22.3714C242.341 22.1698 234.913 25.0269 210.928 22.1435C208.859 21.8697 206.758 21.5562 204.633 21.2038C202.284 20.8534 198.164 20.6811 194.299 20.2495C192.306 20.0281 190.248 19.7562 187.985 19.2647C185.69 18.6783 183.336 18.347 179.774 15.8946C179.253 15.4415 179.031 15.531 177.511 13.7214C177.315 13.457 177.06 13.1261 176.703 12.4325C176.415 11.7842 175.874 10.9005 175.839 8.75409C175.642 6.93163 177.386 3.55036 178.79 2.70102C180.09 1.67831 181.185 1.38322 181.681 1.23887C183.937 0.743748 184.149 0.990114 184.726 0.979995C186.413 1.15727 186.93 1.35804 187.701 1.54027C188.402 1.72412 189.029 1.90704 189.605 2.07605C189.892 2.16037 190.166 2.24142 190.392 2.30749C190.494 2.35966 191.215 2.47116 190.162 2.32907C208.063 4.6364 225.741 5.90954 237.383 6.65558C238.488 6.72033 239.535 6.7895 240.522 6.85587C251.988 7.53239 265.167 10.1848 278.624 10.2121C278.883 10.2151 279.036 10.2094 279.543 10.2603C279.824 10.2975 279.932 10.2937 280.556 10.445C281.121 10.6892 281.757 10.463 283.77 12.3396C284.572 12.9883 285.848 15.6827 285.529 17.453C285.346 19.0714 284.87 19.8195 284.493 20.445C283.839 21.4143 283.471 21.6704 283.205 21.9189C282.707 22.3407 282.465 22.4809 282.243 22.6253C281.477 23.0901 281.198 23.1977 280.845 23.3707C280.194 23.6746 279.685 23.8896 279.187 24.1045C278.29 24.4776 277.033 25.0666 277.182 24.9972C271.329 28.6937 264.859 30.3036 259.339 31.7914C257.487 32.2913 255.619 32.7785 253.74 33.251C228.541 39.6647 197.393 47.6358 168.887 50.6313C167.181 50.8141 165.43 50.997 163.648 51.178C135.417 54.2894 98.6125 53.7507 81.1595 52.801C62.5736 51.8311 58.0655 51.4928 40.1959 51.8211C29.9244 52.0001 15.8096 51.4522 3.87852 50.176C-2.12698 49.5397 -0.771901 48.6628 5.28704 48.2629C14.1453 47.6887 21.4084 48.1978 25.9842 47.1682C35.1288 45.1153 39.0186 44.3525 50.4874 45.7893C61.9588 47.2199 67.3921 44.3769 74.0638 44.7346C80.7195 44.964 80.6963 47.2016 114.51 44.7814C135.667 43.0595 150.641 40.9536 161.937 39.0729C168.717 37.9389 174.209 36.9633 178.904 36.0825C191.482 33.7923 218.067 30.3228 238.119 24.5876C243.01 23.2148 249.136 21.5207 255.795 19.5477C261.22 17.9582 266.332 16.5487 270.263 14.0084C272.234 12.8538 272.994 12.6484 274.051 12.1643C274.533 11.956 275.004 11.7517 275.324 11.6C275.457 11.542 275.654 11.4221 275.357 11.5959C275.254 11.6644 275.135 11.722 274.744 12.0466C274.565 12.2098 274.209 12.4753 273.665 13.2476C273.321 13.7662 272.85 14.5406 272.631 15.8603C272.234 17.4705 273.192 20.1856 274.111 21.0398C276.076 23.0272 276.784 22.7937 277.264 23.0238C277.814 23.1611 277.899 23.1546 278.105 23.1834C278.465 23.2202 278.52 23.2124 278.624 23.2151C262.121 23.0633 247.705 19.9326 239.577 19.9736C238.53 19.946 237.557 19.9252 236.647 19.9087C222.543 19.6571 221.726 17.9829 208.695 16.2763Z" fill="#5C18DD"/>
</svg>
