<svg width="42" height="42" viewBox="0 0 42 42" fill="none" xmlns="http://www.w3.org/2000/svg">
<path d="M34.7812 6.5625H7.21875C6.00081 6.5638 4.83313 7.0482 3.97192 7.90942C3.1107 8.77063 2.6263 9.93831 2.625 11.1562V30.8438C2.6263 32.0617 3.1107 33.2294 3.97192 34.0906C4.83313 34.9518 6.00081 35.4362 7.21875 35.4375H34.7812C35.9992 35.4362 37.1669 34.9518 38.0281 34.0906C38.8893 33.2294 39.3737 32.0617 39.375 30.8438V11.1562C39.3737 9.93831 38.8893 8.77063 38.0281 7.90942C37.1669 7.0482 35.9992 6.5638 34.7812 6.5625ZM33.618 14.1611L21.8055 23.3486C21.5752 23.5276 21.2918 23.6248 21 23.6248C20.7082 23.6248 20.4248 23.5276 20.1945 23.3486L8.38195 14.1611C8.24317 14.0562 8.12659 13.9249 8.03901 13.7747C7.95142 13.6244 7.89457 13.4582 7.87176 13.2858C7.84895 13.1134 7.86062 12.9382 7.90612 12.7703C7.95161 12.6025 8.03001 12.4453 8.13676 12.308C8.24351 12.1707 8.37648 12.056 8.52795 11.9706C8.67942 11.8851 8.84636 11.8306 9.01908 11.8102C9.19179 11.7898 9.36684 11.804 9.53404 11.8518C9.70124 11.8997 9.85727 11.9803 9.99305 12.0889L21 20.6497L32.007 12.0889C32.2822 11.8811 32.6282 11.7899 32.9701 11.8352C33.312 11.8804 33.6224 12.0584 33.8341 12.3307C34.0458 12.603 34.1418 12.9477 34.1014 13.2902C34.0609 13.6327 33.8873 13.9455 33.618 14.1611Z" fill="#BB0DBA"/>
</svg>
