<svg width="144" height="164" viewBox="0 0 144 164" fill="none" xmlns="http://www.w3.org/2000/svg">
<path d="M79.2816 122.114C78.5593 121.914 76.4651 123.171 74.9645 124.628C73.2495 126.154 72.2076 127.824 69.2981 130.156C65.5247 133.43 61.7688 137.016 56.5003 140.347C49.059 145.16 45.5718 146.259 40.3618 150.386C39.3723 151.116 37.1412 154.131 34.187 157.398C33.417 158.222 32.6058 159.039 31.438 159.912C30.1976 160.603 29.0097 162.284 24.581 161.762C21.0569 160.54 21.6272 159.79 21.2643 159.647C21.0679 159.392 20.9163 159.149 20.8618 159.061C20.7172 158.827 20.5959 158.602 20.5279 158.473C20.3616 158.156 20.2567 157.934 20.1387 157.681C19.9325 157.237 19.7454 156.802 19.5783 156.403C19.2379 155.588 18.9328 154.807 18.6376 154.032C18.0527 152.491 17.5161 150.984 17.0055 149.513C16.0055 146.633 15.0125 143.579 14.2669 141.422C12.5527 136.971 10.7677 133.157 9.25841 130.761C6.57961 126.479 7.26489 124.254 6.47242 119.686C6.20508 118.042 5.84378 116.096 5.25879 113.669C4.19637 109.149 3.69117 105.86 2.91815 102.925C1.7567 98.5874 2.18564 94.7298 2.1381 90.9134C2.13681 90.8302 2.1349 90.7454 2.13232 90.6589C2.1111 89.8693 2.02008 88.9113 1.8227 87.8144C1.79638 87.6708 1.77241 87.5396 1.74017 87.3793C1.72322 87.2947 1.71083 87.2336 1.67516 87.068C1.6568 86.9571 1.67065 87.1357 1.60052 86.6156C1.59395 86.5399 1.58578 86.4453 1.58941 86.2843C1.60958 86.1115 1.53753 86.4092 1.66933 85.6958C1.77136 85.3714 1.94607 84.5251 3.12943 83.9062C4.37607 83.3267 5.42056 83.847 5.74542 84.0612C6.97754 85.1056 6.32246 84.6243 6.51874 84.8C6.55592 84.8534 6.58209 84.8945 6.60365 84.9294C6.68332 85.0597 6.72062 85.1394 6.72787 85.1542C6.78428 85.2723 6.80174 85.3205 6.82237 85.3721C6.95811 85.7317 7.05229 86.0105 7.16658 86.3251C7.38954 86.9442 7.63168 87.5911 7.89237 88.2634C9.71509 92.9563 12.131 98.7575 14.5787 104.227C17.4105 110.605 20.0925 116.549 22.159 119.709C24.573 123.459 26.4692 127.697 28.326 131.621C30.182 135.548 32.2597 139.284 33.8517 142.019C34.8463 143.702 35.5116 145.112 35.9343 146.231C36.1136 146.706 36.057 147.006 35.8873 147.107C35.8872 147.107 35.8871 147.107 35.887 147.107C35.6747 147.232 35.2899 147.054 34.9324 146.538C33.2179 143.992 30.1232 140.68 26.2453 136.603C25.4404 135.741 24.7486 134.922 24.1491 134.133C19.5759 127.938 19.7497 125.222 14.1186 114.396C12.6069 111.47 11.1869 108.868 9.78694 106.432C6.89913 101.392 4.24282 96.8394 1.55623 91.18C1.30867 90.6579 1.06421 90.1277 0.824257 89.5893C0.699798 89.3102 0.581639 89.0402 0.464559 88.7691C0.405179 88.6318 0.348917 88.5004 0.303191 88.3946C0.389077 88.5137 -0.0903538 87.751 0.676066 88.9982C0.716386 89.0525 0.722744 89.0637 0.816261 89.1803C1.23854 89.3511 0.921426 90.5041 4.54781 90.8299C6.51684 90.8029 8.0988 89.0408 8.36764 88.2392C8.74779 87.4171 8.75816 86.7511 8.76199 86.8004C8.77954 86.6237 8.78355 86.4894 8.78432 86.3775C8.78162 85.9437 8.74795 85.7973 8.73123 85.67C8.68828 85.417 8.69022 85.454 8.67956 85.4008C8.66365 85.3325 8.65899 85.3178 8.658 85.3146C8.65509 85.3056 8.66189 85.3329 8.66805 85.357C8.98993 86.5399 9.31286 88.0003 9.49515 89.4682C9.69733 91.0765 9.76028 92.6679 9.79829 94.214C9.85245 96.909 10.1158 98.9294 10.7025 100.589C12.8388 107.166 13.8358 111.901 15.7245 117.064C17.0829 120.873 19.1353 125.626 21.6447 133.253C22.1488 134.82 22.6413 136.301 23.1076 137.708C24.385 141.913 25.3705 144.807 26.5487 147.532C27.1248 148.869 27.7104 150.092 28.3151 151.23C28.6133 151.788 28.9221 152.339 29.2237 152.828C29.3701 153.062 29.5239 153.301 29.6556 153.474C29.7158 153.549 29.7834 153.632 29.8041 153.622C29.8097 153.611 29.8199 153.599 29.7487 153.47C29.7052 153.395 29.6402 153.288 29.4997 153.109C29.3225 153.06 29.2991 152.215 26.7419 151.453C24.0097 151.194 25.0145 151.446 25.2408 150.764C25.6424 150.2 26.1802 149.394 26.7334 148.497C27.293 147.596 27.887 146.59 28.5639 145.47C29.3652 144.245 29.5856 143.461 31.5657 141.173C33.5468 138.888 35.9339 136.446 38.9437 133.843C45.7626 127.939 54.0365 122.551 62.511 118.176C63.4322 117.782 66.0903 115.735 68.5199 114.184C71.2218 112.696 73.5742 110.347 79.9086 110.336C80.3987 110.387 80.7579 110.373 81.9307 110.662C82.313 110.773 82.5713 110.831 83.2928 111.163C83.888 111.512 85.0618 111.87 86.4108 114.062C87.9897 116.584 87.0123 120.048 86.4232 120.827C85.755 121.973 85.3267 122.301 85.0172 122.612C82.8762 124.334 82.7417 124.044 82.0549 124.416C81.4933 124.651 81.0242 124.823 80.6102 124.975C80.4057 125.049 80.2168 125.117 80.081 125.165C80.0797 125.12 79.4213 125.549 80.6828 124.75C75.2186 128.247 70.5702 131.758 67.265 134.559C63.683 137.6 59.7042 141.124 55.2437 144.869C47.683 151.212 38.6493 155.507 32.2218 161.374C31.9648 161.605 31.8271 161.766 31.1472 162.22C30.8408 162.407 30.4196 162.697 29.4676 162.998C28.8567 163.233 26.3879 163.664 24.3312 162.412C22.1674 161.062 21.7647 159.698 21.4387 158.908C21.1892 158.165 21.1478 157.767 21.103 157.393C21.0452 156.797 21.0676 156.456 21.0808 156.202C21.1579 155.248 21.2451 155.01 21.3149 154.658C21.4568 154.039 21.5779 153.624 21.6895 153.223C21.9024 152.54 22.1206 151.479 22.0705 152.006C22.1405 151.224 22.2446 150.442 22.382 149.668C23.1465 145.185 25.0667 141.143 26.4993 137.857C33.368 121.915 42.0309 104.253 52.4448 89.8098C55.1103 86.0988 58.0633 82.1133 61.1821 78.064C72.9978 62.5087 88.7367 47.8662 97.1807 40.6892C107.91 31.6085 110.597 29.5307 120.112 20.0069C125.591 14.5441 133.664 7.64919 141.034 2.38563C144.74 -0.2703 144.612 1.06551 141.584 4.50421C137.148 9.52292 132.833 12.9157 131.039 16.0395C127.45 22.2811 125.846 24.8506 118.633 29.7488C111.422 34.6603 110.451 39.5494 106.623 42.7591C102.939 46.075 101.181 44.3849 85.1493 63.9508C78.8366 71.9362 74.1433 78.7245 70.4772 84.4988C64.971 93.1784 61.3035 99.3988 58.4995 104.35C53.8806 112.378 43.2989 128.443 37.6782 142.712C37.5145 143.118 37.3552 143.512 37.2025 143.895C35.98 146.945 34.8343 149.814 34.7002 152.849C34.4911 154.949 34.2363 155.464 34.0457 156.347C33.9503 156.732 33.86 157.103 33.8241 157.288C33.8071 157.345 33.8097 157.487 33.856 156.999C33.8639 156.846 33.8846 156.658 33.849 156.179C33.5551 155.647 34.5825 154.879 31.3855 151.751C29.5116 150.229 26.7723 150.386 25.991 150.671C25.0005 150.939 24.5212 151.261 24.2558 151.419C23.6343 151.827 23.5453 151.95 23.3711 152.104C31.2396 144.566 41.0881 139.972 47.0777 134.803C51.84 130.826 56.0015 127.121 58.8558 124.447C66.051 117.717 68.7496 116.859 73.4763 114.606C74.8159 113.792 74.6971 114.012 75.0487 113.864C75.303 113.79 75.5151 113.738 75.7165 113.691C76.1202 113.596 76.4893 113.516 76.8174 113.442C77.0926 113.408 77.5828 113.182 77.1655 113.529C77.013 113.769 76.8016 113.463 75.7492 115.401C75.5375 115.854 75.1953 116.955 75.3658 118.115C75.4889 119.297 76.2497 120.484 76.6934 120.909C77.8259 122.001 78.2238 121.967 78.5466 122.122C79.5701 122.404 79.3157 122.226 79.2944 122.222C79.3598 122.186 79.3547 122.14 79.2816 122.114Z" fill="#EF66EE"/>
</svg>
