<svg width="257" height="143" viewBox="0 0 257 143" fill="none" xmlns="http://www.w3.org/2000/svg">
<path d="M193.915 118.438C190.545 116.309 186.989 115.255 183.467 114.916C174.893 113.843 166.841 111.159 159.062 108.445C158.225 108.16 157.449 107.914 156.717 107.696C150.6 105.979 147.113 104.918 142.481 104.297C141.751 104.22 141.034 104.143 140.118 104.018C139.49 103.893 139.718 104.082 137.647 103.487C137.473 103.413 137.158 103.348 136.387 102.864C136.04 102.467 135.495 102.833 134.172 100.065C133.613 98.7991 133.884 96.5822 134.413 95.7151C134.879 94.7808 135.439 94.2328 135.87 93.8714C137.793 92.5494 137.483 93.0068 137.975 92.7806C138.337 92.6849 138.414 92.6788 138.574 92.65C139.14 92.5641 139.33 92.5738 139.552 92.5667C139.987 92.5621 140.277 92.5836 140.582 92.6084C142.813 92.8364 144.689 93.3195 146.908 94.1657C148.729 94.8894 150.819 95.6113 153.278 96.3255C169.526 100.834 186.34 106.685 194.11 108.803C201.986 110.866 201.683 113.73 211.872 118.88C212.713 119.334 213.514 119.791 214.288 120.256C220.521 124.125 224.785 127.672 228.593 128.845C230.771 129.364 230.743 129.779 231.385 130.165C231.886 130.553 232.301 130.926 232.707 131.31C233.521 132.086 234.218 132.819 235.042 133.777C235.065 133.808 235.086 133.838 235.106 133.865C235.194 134.009 235.339 134.129 235.141 134.061C235.163 133.918 233.285 133.915 232.907 134.627C232.449 135.474 233.081 134.385 233.155 133.596C233.522 131.757 233.496 129.534 234.027 126.491C236.648 114.249 238.388 96.9623 239.959 89.1782C240.651 84.6973 242.38 80.0836 244.8 76.0714C248.03 70.7182 251.066 65.3544 253.123 61.4851C254.195 59.4395 255.159 57.8817 255.972 56.7321C256.317 56.2446 256.618 56.0927 256.795 56.181C256.795 56.1811 256.795 56.1812 256.795 56.1812C257.016 56.2916 257.043 56.7731 256.746 57.4594C255.268 60.7958 253.596 65.9598 251.77 72.279C251.032 74.787 250.282 76.7897 249.489 78.5179C247.033 84.4349 244.59 87.2731 242.914 99.7475C241.699 110.108 242.105 117.999 240.671 127.678C240.546 128.707 240.571 130.894 240.413 133.122C240.288 134.33 240.319 135.406 239.571 137.526C239.336 138.078 239.08 138.776 238.178 139.731C237.38 140.72 235.041 141.62 233.596 141.27C230.826 140.617 230.482 139.692 229.744 139.075C228.999 138.268 227.701 137.056 226.949 136.469C226.91 136.357 226.384 136.3 227.629 136.553C222.245 135.409 219.631 133.323 216.789 131.822C214.073 130.258 211.642 128.794 209.374 127.627C202.94 124.417 196.242 121.606 182.531 115.664C163.824 107.91 156.583 109.04 142.647 105.529C141.884 105.395 140.957 105.313 140.254 105.371C140.11 105.385 139.899 105.418 140.1 105.446C140.178 105.448 140.243 105.464 140.647 105.416C140.938 105.34 141.009 105.491 142.573 104.84C143.117 104.51 144.515 104.138 145.985 101.551C146.757 100.41 147.139 97.0796 146.252 95.37C145.527 93.5866 144.279 92.6226 144.174 92.5233C142.833 91.4534 142.175 91.357 142.011 91.2645C140.421 90.7682 140.98 90.9876 140.859 90.9214C141.047 90.8878 141.799 90.8647 142.481 90.813C144.842 90.6857 147.442 90.6746 150.285 90.8788C153.483 91.1063 156.749 91.5887 159.948 92.26C170.939 94.6271 179.284 100.39 186.639 102.493C195.612 105.112 202.817 109.758 208.649 113.896C214.485 118.086 219.144 121.883 222.844 124.45C225.153 126.065 227.587 127.722 230.144 129.304C230.437 129.524 231.293 129.839 230.277 129.455C229.799 129.551 229.592 128.448 225.83 130.094C223.87 131.174 222.998 133.558 222.952 134.375C222.821 135.407 222.93 135.81 222.965 136.094C223.183 137.105 223.173 136.817 223.115 136.765C222.799 136.139 222.02 134.968 221.113 133.294C219.416 130.033 216.338 126.445 213.461 121.28C209.478 113.873 203.65 107.16 196.411 100.684C194.719 99.1521 192.912 97.6261 191.014 96.0892C178.316 85.8841 167.283 72.5091 154.355 64.2845C148.393 60.4511 142.892 56.2944 137.761 52.1939C130.127 46.1016 121.508 39.1386 112.238 33.8065C97.0692 24.9989 80.9338 18.6213 71.3836 15.3338C55.8151 10.1237 51.7895 9.14327 36.051 7.42231C26.9867 6.51648 14.5524 5.20167 3.93219 3.76612C-1.41179 3.05368 -0.206713 2.17985 5.22985 1.87787C13.1863 1.46587 19.6684 2.34782 23.8471 1.61685C32.2104 0.210089 35.9203 -0.252561 46.0246 2.67214C56.0561 5.69588 61.4422 4.05949 67.3301 5.87998C70.252 6.81397 71.5784 7.6814 75.9204 9.27731C80.2417 10.946 87.6562 13.0698 102.21 18.5634C107.605 20.6341 112.472 22.7452 116.885 24.8222C136.549 34.6735 146.207 43.2343 154.025 48.0743C156.109 49.4514 158.632 51.2136 161.497 53.125C173.335 60.6518 184.809 75.282 195.582 83.974C196.549 84.7559 197.586 85.5783 198.692 86.4205C206.698 92.4653 218.269 102.398 224.909 115.116C226.835 118.696 230.086 122.553 232.636 127.368C233.081 128.212 233.902 129.38 234.861 131.302C235.107 131.919 235.443 132.222 235.789 134.279C235.846 134.91 235.977 135.726 235.543 137.276C235.233 138.946 232.865 141.453 231.118 141.843C227.706 142.692 227.174 141.913 226.487 141.846C224.319 141.076 223.936 140.662 223.132 140.212C219.989 138.283 217.356 136.529 215.224 135.169C202.139 126.818 203.675 125.06 193.915 118.438Z" fill="#3F3B54"/>
</svg>
