<svg width="196" height="196" viewBox="0 0 196 196" fill="none" xmlns="http://www.w3.org/2000/svg">
<g opacity="0.6" filter="url(#filter0_f_5501_1414)">
<circle cx="98" cy="98" r="58" fill="url(#paint0_linear_5501_1414)"/>
</g>
<circle opacity="0.3" cx="98" cy="98" r="43" stroke="url(#paint1_linear_5501_1414)" stroke-width="4"/>
<path d="M126.682 93.8H120.693V74.2C120.693 68.0138 115.647 63 109.42 63H87.5795C81.3531 63 76.3068 68.0138 76.3068 74.2V93.8H70.3182C68.7594 93.8 67.5 95.0513 67.5 96.6V130.2C67.5 131.749 68.7594 133 70.3182 133H126.682C128.241 133 129.5 131.749 129.5 130.2V96.6C129.5 95.0513 128.241 93.8 126.682 93.8ZM100.966 114.538V119.175C100.966 119.56 100.649 119.875 100.261 119.875H96.7386C96.3511 119.875 96.0341 119.56 96.0341 119.175V114.538C95.3071 114.019 94.7645 113.285 94.4844 112.44C94.2042 111.596 94.201 110.685 94.4751 109.838C94.7493 108.992 95.2867 108.254 96.0099 107.73C96.7332 107.206 97.6051 106.924 98.5 106.924C99.3949 106.924 100.267 107.206 100.99 107.73C101.713 108.254 102.251 108.992 102.525 109.838C102.799 110.685 102.796 111.596 102.516 112.44C102.236 113.285 101.693 114.019 100.966 114.538ZM114.352 93.8H82.6477V74.2C82.6477 71.4963 84.8582 69.3 87.5795 69.3H109.42C112.142 69.3 114.352 71.4963 114.352 74.2V93.8Z" fill="white"/>
<defs>
<filter id="filter0_f_5501_1414" x="0" y="0" width="196" height="196" filterUnits="userSpaceOnUse" color-interpolation-filters="sRGB">
<feFlood flood-opacity="0" result="BackgroundImageFix"/>
<feBlend mode="normal" in="SourceGraphic" in2="BackgroundImageFix" result="shape"/>
<feGaussianBlur stdDeviation="20" result="effect1_foregroundBlur_5501_1414"/>
</filter>
<linearGradient id="paint0_linear_5501_1414" x1="52.992" y1="57.69" x2="147.878" y2="64.4087" gradientUnits="userSpaceOnUse">
<stop stop-color="#BB0DBA"/>
<stop offset="0.488034" stop-color="#5C18DD"/>
<stop offset="1" stop-color="#0099AD"/>
</linearGradient>
<linearGradient id="paint1_linear_5501_1414" x1="63.08" y1="66.725" x2="136.699" y2="71.9378" gradientUnits="userSpaceOnUse">
<stop stop-color="#BB0DBA"/>
<stop offset="0.488034" stop-color="#5C18DD"/>
<stop offset="1" stop-color="#0099AD"/>
</linearGradient>
</defs>
</svg>
