<svg width="196" height="196" viewBox="0 0 196 196" fill="none" xmlns="http://www.w3.org/2000/svg">
<g opacity="0.6" filter="url(#filter0_f_5501_223)">
<circle cx="98" cy="98" r="58" fill="url(#paint0_linear_5501_223)"/>
</g>
<circle opacity="0.3" cx="98" cy="98" r="43" stroke="url(#paint1_linear_5501_223)" stroke-width="4"/>
<path d="M98 62C96.3431 62 95 63.3431 95 65C95 66.6569 96.3431 68 98 68C114.569 68 128 81.4315 128 98C128 114.569 114.569 128 98 128C81.4315 128 68 114.569 68 98C68 96.3431 66.6569 95 65 95C63.3431 95 62 96.3431 62 98C62 117.882 78.1177 134 98 134C117.882 134 134 117.882 134 98C134 78.1177 117.882 62 98 62Z" fill="white"/>
<path d="M101 81C101 79.3431 99.6569 78 98 78C96.3431 78 95 79.3431 95 81V99.2426L101.379 105.621C102.55 106.793 104.45 106.793 105.621 105.621C106.793 104.45 106.793 102.55 105.621 101.379L101 96.7574V81Z" fill="white"/>
<defs>
<filter id="filter0_f_5501_223" x="0" y="0" width="196" height="196" filterUnits="userSpaceOnUse" color-interpolation-filters="sRGB">
<feFlood flood-opacity="0" result="BackgroundImageFix"/>
<feBlend mode="normal" in="SourceGraphic" in2="BackgroundImageFix" result="shape"/>
<feGaussianBlur stdDeviation="20" result="effect1_foregroundBlur_5501_223"/>
</filter>
<linearGradient id="paint0_linear_5501_223" x1="52.992" y1="57.69" x2="147.878" y2="64.4087" gradientUnits="userSpaceOnUse">
<stop stop-color="#BB0DBA"/>
<stop offset="0.488034" stop-color="#5C18DD"/>
<stop offset="1" stop-color="#0099AD"/>
</linearGradient>
<linearGradient id="paint1_linear_5501_223" x1="63.08" y1="66.725" x2="136.699" y2="71.9378" gradientUnits="userSpaceOnUse">
<stop stop-color="#BB0DBA"/>
<stop offset="0.488034" stop-color="#5C18DD"/>
<stop offset="1" stop-color="#0099AD"/>
</linearGradient>
</defs>
</svg>
