<svg width="196" height="196" viewBox="0 0 196 196" fill="none" xmlns="http://www.w3.org/2000/svg">
<g opacity="0.6" filter="url(#filter0_f_5518_2098)">
<circle cx="98" cy="98" r="58" fill="url(#paint0_linear_5518_2098)"/>
</g>
<circle opacity="0.3" cx="98" cy="98" r="43" stroke="url(#paint1_linear_5518_2098)" stroke-width="4"/>
<path d="M110 66.4252C110 65.8298 109.763 65.2592 109.344 64.8402L109.341 64.8373C109.254 64.7508 109.139 64.6995 109.016 64.6928C108.895 64.6861 108.775 64.7227 108.68 64.7982L108.681 64.7992L108.294 65.1088L108.293 65.1097C108.019 65.329 107.791 65.6009 107.624 65.9095C107.457 66.2181 107.354 66.5573 107.32 66.9066V66.9076L104.831 92.6195L104.832 92.6205C104.743 93.6088 104.295 94.5302 103.573 95.2113C102.851 95.8925 101.905 96.286 100.913 96.3178C99.9209 96.3494 98.9512 96.0178 98.1874 95.3842C97.4236 94.7505 96.9186 93.8589 96.7665 92.8783V92.8773L92.5711 66.8715V66.8705C92.4677 66.2284 92.1291 65.6476 91.6219 65.2406L90.9129 64.6742L90.912 64.6732C90.8602 64.6318 90.7946 64.6101 90.7284 64.6136C90.6626 64.6173 90.5994 64.6446 90.5526 64.6908L90.5536 64.6918C90.3499 64.8958 90.195 65.1431 90.1004 65.4154C90.0059 65.6878 89.9742 65.9786 90.0077 66.265H90.0067L93.0243 91.8949H93.0233C93.131 92.8073 92.9786 93.7313 92.5838 94.5609C92.1887 95.3911 91.5667 96.0935 90.7899 96.5853C90.0132 97.077 89.1134 97.339 88.1942 97.3412C87.2747 97.3434 86.3728 97.0852 85.5936 96.597V96.5961L84.3075 95.7924V95.7914C83.9002 95.5376 83.4309 95.4008 82.951 95.3949C82.4702 95.389 81.9968 95.5154 81.5829 95.7601H81.5819L71.1932 101.899C69.8337 102.702 68.8206 103.982 68.3504 105.49C67.8803 106.997 67.9866 108.625 68.6483 110.059L76.3163 126.674C76.5311 127.08 77.7143 128.544 80.9149 129.936C84.0593 131.303 88.9503 132.5 96.1249 132.5C103.102 132.5 108.011 130.761 111.12 129.103C112.682 128.27 113.805 127.449 114.515 126.861C114.871 126.567 115.122 126.331 115.273 126.182C115.32 126.136 115.356 126.097 115.384 126.069L129.337 107.19C128.568 106.806 127.755 106.506 126.976 106.37C125.812 106.166 124.945 106.349 124.249 106.906L117.92 111.971L117.917 111.973C117.199 112.546 116.335 112.905 115.423 113.008C114.51 113.111 113.587 112.954 112.76 112.556C111.933 112.158 111.235 111.534 110.747 110.756C110.259 109.979 109.999 109.079 110 108.161V66.4252ZM116 105.822L120.501 102.22L120.727 102.044C123.077 100.282 125.743 100.063 128.011 100.459C130.297 100.859 132.37 101.903 133.872 102.887H133.871C136.264 104.453 136.449 107.455 135.133 109.435L135.001 109.623L120.1 129.784C120.052 129.85 119.999 129.914 119.945 129.976L117.687 128L119.943 129.978C119.943 129.978 119.941 129.98 119.94 129.981C119.939 129.983 119.937 129.985 119.935 129.987C119.932 129.991 119.927 129.996 119.923 130.001C119.914 130.012 119.903 130.024 119.89 130.037C119.865 130.065 119.833 130.1 119.794 130.141C119.716 130.223 119.611 130.332 119.478 130.462C119.213 130.723 118.835 131.074 118.341 131.483C117.352 132.301 115.896 133.355 113.943 134.397C110.021 136.489 104.148 138.5 96.1249 138.5C88.2996 138.5 82.5652 137.197 78.5223 135.439C74.8274 133.832 72.3303 131.742 71.159 129.742L70.9422 129.342C70.9282 129.314 70.9144 129.286 70.9012 129.257L63.2001 112.574C61.9155 109.791 61.7104 106.63 62.6229 103.703C63.5356 100.777 65.5015 98.2933 68.1405 96.7338L78.5292 90.5951L78.787 90.4486C80.0841 89.7407 81.5433 89.3778 83.0243 89.3959C84.339 89.4119 85.6285 89.7287 86.7967 90.3168L84.0477 66.9633V66.9613C83.9093 65.7764 84.0403 64.5747 84.4315 63.4476C84.8227 62.3207 85.4638 61.2968 86.3065 60.4525L86.3085 60.4515L86.5165 60.2523C87.581 59.2808 88.9505 58.7036 90.3954 58.6234C91.9363 58.5379 93.4549 59.0236 94.66 59.9877L94.659 59.9886L95.367 60.5531L95.369 60.5541L95.6756 60.8119C97.1759 62.1316 98.1748 63.9346 98.494 65.9154L100.302 77.1263L101.348 66.3295L101.4 65.9008C101.547 64.9046 101.867 63.9406 102.348 63.0531C102.896 62.0395 103.643 61.1464 104.543 60.4261V60.4252L104.93 60.1166L104.931 60.1146L105.169 59.933C106.376 59.0551 107.853 58.6184 109.349 58.7015C110.945 58.7902 112.452 59.4637 113.582 60.5931L113.864 60.889C115.236 62.4016 116 64.3749 116 66.4252V105.822Z" fill="white"/>
<defs>
<filter id="filter0_f_5518_2098" x="0" y="0" width="196" height="196" filterUnits="userSpaceOnUse" color-interpolation-filters="sRGB">
<feFlood flood-opacity="0" result="BackgroundImageFix"/>
<feBlend mode="normal" in="SourceGraphic" in2="BackgroundImageFix" result="shape"/>
<feGaussianBlur stdDeviation="20" result="effect1_foregroundBlur_5518_2098"/>
</filter>
<linearGradient id="paint0_linear_5518_2098" x1="52.992" y1="57.69" x2="147.878" y2="64.4087" gradientUnits="userSpaceOnUse">
<stop stop-color="#BB0DBA"/>
<stop offset="0.488034" stop-color="#5C18DD"/>
<stop offset="1" stop-color="#0099AD"/>
</linearGradient>
<linearGradient id="paint1_linear_5518_2098" x1="63.08" y1="66.725" x2="136.699" y2="71.9378" gradientUnits="userSpaceOnUse">
<stop stop-color="#BB0DBA"/>
<stop offset="0.488034" stop-color="#5C18DD"/>
<stop offset="1" stop-color="#0099AD"/>
</linearGradient>
</defs>
</svg>
