<svg width="196" height="196" viewBox="0 0 196 196" fill="none" xmlns="http://www.w3.org/2000/svg">
<g opacity="0.6" filter="url(#filter0_f_5518_2183)">
<circle cx="98" cy="98" r="58" fill="url(#paint0_linear_5518_2183)"/>
</g>
<circle opacity="0.3" cx="98" cy="98" r="43" stroke="url(#paint1_linear_5518_2183)" stroke-width="4"/>
<path d="M95.9907 53.9866C97.1683 52.9226 98.9866 52.9581 100.122 54.0931L112.979 66.9495L113.084 67.0618C114.149 68.2394 114.114 70.0576 112.979 71.1927C111.844 72.3276 110.026 72.363 108.848 71.2991L108.736 71.1927L101 63.4573V95.0003H132.543L124.807 87.264L124.701 87.1517C123.637 85.9741 123.673 84.1567 124.807 83.0218C125.942 81.8868 127.76 81.8512 128.938 82.9154L129.05 83.0218L141.907 95.8782C143.078 97.0498 143.078 98.9498 141.907 100.121L129.05 112.979C127.879 114.15 125.979 114.15 124.807 112.979C123.636 111.807 123.636 109.907 124.807 108.736L132.542 101H101V132.542L108.736 124.807C109.907 123.635 111.807 123.635 112.979 124.807C114.15 125.979 114.15 127.879 112.979 129.05L100.122 141.907C98.95 143.078 97.0499 143.078 95.8784 141.907L83.0219 129.05L82.9155 128.938C81.8513 127.76 81.8869 125.942 83.0219 124.807C84.1568 123.672 85.9742 123.637 87.1518 124.701L87.2641 124.807L95.0004 132.543V101H63.4575L71.1928 108.736L71.2993 108.848C72.3631 110.026 72.3277 111.844 71.1928 112.979C70.0578 114.114 68.2395 114.149 67.062 113.084L66.9497 112.979L54.0932 100.121C52.9216 98.9498 52.9216 97.0498 54.0932 95.8782L66.9497 83.0218L67.062 82.9154C68.2396 81.8511 70.0578 81.8868 71.1928 83.0218C72.3642 84.1934 72.3643 86.0925 71.1928 87.264L63.4565 95.0003H95.0004V63.4564L87.2641 71.1927L87.1518 71.2991C85.9742 72.3628 84.1568 72.3274 83.0219 71.1927C81.8504 70.0211 81.8504 68.1211 83.0219 66.9495L95.8784 54.0931L95.9907 53.9866Z" fill="white"/>
<defs>
<filter id="filter0_f_5518_2183" x="0" y="0" width="196" height="196" filterUnits="userSpaceOnUse" color-interpolation-filters="sRGB">
<feFlood flood-opacity="0" result="BackgroundImageFix"/>
<feBlend mode="normal" in="SourceGraphic" in2="BackgroundImageFix" result="shape"/>
<feGaussianBlur stdDeviation="20" result="effect1_foregroundBlur_5518_2183"/>
</filter>
<linearGradient id="paint0_linear_5518_2183" x1="52.992" y1="57.69" x2="147.878" y2="64.4087" gradientUnits="userSpaceOnUse">
<stop stop-color="#BB0DBA"/>
<stop offset="0.488034" stop-color="#5C18DD"/>
<stop offset="1" stop-color="#0099AD"/>
</linearGradient>
<linearGradient id="paint1_linear_5518_2183" x1="63.08" y1="66.725" x2="136.699" y2="71.9378" gradientUnits="userSpaceOnUse">
<stop stop-color="#BB0DBA"/>
<stop offset="0.488034" stop-color="#5C18DD"/>
<stop offset="1" stop-color="#0099AD"/>
</linearGradient>
</defs>
</svg>
