<svg width="196" height="196" viewBox="0 0 196 196" fill="none" xmlns="http://www.w3.org/2000/svg">
<g opacity="0.6" filter="url(#filter0_f_5518_2155)">
<circle cx="98" cy="98" r="58" fill="url(#paint0_linear_5518_2155)"/>
</g>
<circle opacity="0.3" cx="98" cy="98" r="43" stroke="url(#paint1_linear_5518_2155)" stroke-width="4"/>
<path d="M108.439 123.14C115.846 119.439 124.98 119.563 132.272 123.51H132.271C133.362 124.1 136.472 125.531 138.461 127.3C139.468 128.196 140.728 129.626 140.964 131.588C141.228 133.785 140.12 135.619 138.539 136.987L138.54 136.988C136.034 139.158 132.9 141 128.82 141H111.184C107.1 141 103.966 139.159 101.46 136.988V136.987C99.8792 135.618 98.7733 133.783 99.0378 131.587C99.274 129.626 100.532 128.197 101.54 127.301C103.528 125.531 106.636 124.101 107.728 123.51L108.439 123.14ZM62.9997 110C62.9997 108.343 64.343 107 65.9997 107C67.6566 107 68.9997 108.343 68.9997 110C68.9997 119.825 75.7223 128.057 84.8249 130.358L83.8884 128.485L83.8229 128.346C83.1861 126.892 83.7948 125.179 85.2302 124.461C86.6657 123.743 88.4015 124.284 89.1823 125.666L89.2556 125.803L92.6833 132.658C93.1483 133.588 93.0981 134.693 92.5515 135.577C92.0048 136.461 91.0394 137 89.9997 137C75.075 137 62.9997 124.925 62.9997 110ZM129.416 128.786C123.671 125.677 116.329 125.676 110.584 128.786V128.787C108.844 129.728 106.827 130.627 105.529 131.782C105.333 131.957 105.205 132.095 105.122 132.196C105.185 132.265 105.271 132.35 105.388 132.452H105.387C107.297 134.106 109.084 135 111.184 135H128.82C130.916 135 132.702 134.106 134.612 132.452L134.613 132.451C134.73 132.35 134.815 132.263 134.879 132.195C134.795 132.095 134.668 131.957 134.473 131.783C133.174 130.628 131.157 129.729 129.417 128.787L129.416 128.786ZM120.013 95C121.596 95.007 123.162 95.326 124.621 95.9385C126.08 96.551 127.404 97.4448 128.517 98.5693C129.631 99.694 130.51 101.028 131.108 102.493C131.701 103.948 132.003 105.504 131.999 107.075H132C132 107.081 131.999 107.086 131.999 107.092C131.999 107.098 132 107.104 132 107.109L131.999 107.108C132.003 108.679 131.702 110.237 131.108 111.691C130.51 113.156 129.63 114.49 128.517 115.614C127.404 116.739 126.08 117.634 124.621 118.246C123.162 118.859 121.596 119.177 120.013 119.184C120.005 119.184 119.996 119.184 119.987 119.184C118.405 119.177 116.839 118.859 115.38 118.246C113.92 117.634 112.596 116.739 111.483 115.614C110.37 114.49 109.489 113.157 108.891 111.691C108.298 110.237 107.995 108.679 108 107.108V107.075C107.995 105.504 108.298 103.948 108.891 102.493C109.489 101.028 110.37 99.694 111.483 98.5693C112.596 97.4448 113.921 96.551 115.38 95.9385C116.839 95.326 118.405 95.007 119.987 95H120.013ZM120 101C119.21 101.005 118.43 101.165 117.702 101.471C116.97 101.778 116.305 102.227 115.747 102.791C115.188 103.355 114.747 104.024 114.447 104.759C114.147 105.494 113.995 106.281 114 107.075C114 107.087 114 107.098 114 107.109C113.995 107.903 114.147 108.69 114.447 109.425C114.747 110.16 115.188 110.829 115.747 111.394C116.305 111.958 116.97 112.406 117.702 112.713C118.43 113.018 119.21 113.177 120 113.183C120.789 113.177 121.57 113.018 122.298 112.713C123.029 112.406 123.694 111.958 124.253 111.394C124.811 110.829 125.253 110.16 125.552 109.425C125.852 108.69 126.004 107.903 126 107.109C126 107.098 126 107.087 126 107.075C126.004 106.281 125.852 105.494 125.552 104.759C125.253 104.024 124.811 103.355 124.253 102.791C123.694 102.227 123.03 101.778 122.298 101.471C121.57 101.165 120.789 101.005 120 101ZM64.4392 83.1396C71.8461 79.4394 80.9804 79.5628 88.2722 83.5098H88.2712C89.3624 84.1001 92.4716 85.5305 94.4606 87.2998C95.4684 88.1964 96.7277 89.6257 96.9636 91.5879C97.2276 93.785 96.1199 95.6188 94.5388 96.9873L94.5397 96.9883C92.0339 99.1581 88.9002 101 84.82 101H67.1843C63.1004 101 59.9661 99.1587 57.4597 96.9883V96.9873C55.8792 95.6181 54.7733 93.7833 55.0378 91.5869C55.274 89.6258 56.5322 88.1975 57.5397 87.3008C59.5281 85.5314 62.6359 84.1006 63.7282 83.5098L64.4392 83.1396ZM85.4157 88.7861C79.6707 85.6765 72.3286 85.6764 66.5837 88.7861V88.7871C64.8437 89.7284 62.8273 90.627 61.529 91.7822C61.3331 91.9566 61.205 92.0955 61.1218 92.1963C61.1854 92.2645 61.271 92.3505 61.3884 92.4521H61.3874C63.297 94.1057 65.0841 95 67.1843 95H84.82C86.9156 95 88.7019 94.1062 90.612 92.4521L90.613 92.4512C90.7301 92.3498 90.8149 92.2635 90.8786 92.1953C90.7954 92.0947 90.6682 91.9566 90.4733 91.7832C89.1744 90.6277 87.1573 89.7287 85.4167 88.7871L85.4157 88.7861ZM127 86C127 76.1747 120.277 67.941 111.174 65.6406L112.111 67.5146L112.176 67.6543C112.813 69.108 112.205 70.8212 110.769 71.5391C109.334 72.2567 107.598 71.7158 106.817 70.334L106.745 70.1973L103.317 63.3418C102.852 62.4119 102.901 61.3073 103.448 60.4229C103.995 59.5385 104.96 59.0001 106 59C120.925 59 133 71.0751 133 86C133 87.6569 131.657 89 130 89C128.343 88.9998 127 87.6568 127 86ZM76.0134 55C77.5958 55.007 79.1617 55.326 80.6208 55.9385C82.0798 56.551 83.4041 57.4448 84.5173 58.5693C85.6306 59.694 86.5104 61.0279 87.1081 62.4932C87.7015 63.9482 88.0035 65.505 87.9987 67.0762H87.9997V67.1094L87.9987 67.1084C88.0029 68.6793 87.7009 70.2359 87.1071 71.6904C86.5092 73.1551 85.6285 74.4882 84.5153 75.6123C83.4021 76.7364 82.0776 77.63 80.6188 78.2422C79.1602 78.8543 77.5952 79.1727 76.0134 79.1797C76.0046 79.1797 75.9957 79.1797 75.987 79.1797C74.405 79.1727 72.8393 78.8544 71.3806 78.2422C69.9219 77.63 68.5982 76.7363 67.4851 75.6123C66.3718 74.4882 65.4912 73.1551 64.8933 71.6904C64.2994 70.2358 63.9956 68.6793 63.9997 67.1084V67.0762C63.995 65.5051 64.2979 63.9481 64.8913 62.4932C65.489 61.0279 66.3698 59.694 67.4831 58.5693C68.5963 57.4448 69.9205 56.551 71.3796 55.9385C72.8387 55.326 74.4045 55.007 75.987 55H76.0134ZM75.9997 61C75.2104 61.0052 74.4297 61.1652 73.7018 61.4707C72.9699 61.778 72.3052 62.2268 71.7468 62.791C71.1885 63.3551 70.7467 64.0239 70.447 64.7588C70.1472 65.4939 69.9951 66.2814 69.9997 67.0752C69.9998 67.0861 69.9998 67.0975 69.9997 67.1084C69.9955 67.9018 70.1481 68.6883 70.4479 69.4229C70.7479 70.1576 71.1893 70.8267 71.7477 71.3906C72.3062 71.9545 72.971 72.4028 73.7028 72.71C74.4304 73.0152 75.2108 73.1735 75.9997 73.1787C76.7889 73.1735 77.5697 73.0154 78.2976 72.71C79.0292 72.4029 79.6933 71.9544 80.2517 71.3906C80.8101 70.8267 81.2525 70.1576 81.5524 69.4229C81.8523 68.6883 82.0039 67.9018 81.9997 67.1084C81.9996 67.0975 81.9996 67.0861 81.9997 67.0752C82.0043 66.2813 81.8523 65.4939 81.5524 64.7588C81.2526 64.0238 80.811 63.3552 80.2526 62.791C79.6941 62.2268 79.0295 61.778 78.2976 61.4707C77.5696 61.1652 76.789 61.0052 75.9997 61Z" fill="white"/>
<defs>
<filter id="filter0_f_5518_2155" x="0" y="0" width="196" height="196" filterUnits="userSpaceOnUse" color-interpolation-filters="sRGB">
<feFlood flood-opacity="0" result="BackgroundImageFix"/>
<feBlend mode="normal" in="SourceGraphic" in2="BackgroundImageFix" result="shape"/>
<feGaussianBlur stdDeviation="20" result="effect1_foregroundBlur_5518_2155"/>
</filter>
<linearGradient id="paint0_linear_5518_2155" x1="52.992" y1="57.69" x2="147.878" y2="64.4087" gradientUnits="userSpaceOnUse">
<stop stop-color="#BB0DBA"/>
<stop offset="0.488034" stop-color="#5C18DD"/>
<stop offset="1" stop-color="#0099AD"/>
</linearGradient>
<linearGradient id="paint1_linear_5518_2155" x1="63.08" y1="66.725" x2="136.699" y2="71.9378" gradientUnits="userSpaceOnUse">
<stop stop-color="#BB0DBA"/>
<stop offset="0.488034" stop-color="#5C18DD"/>
<stop offset="1" stop-color="#0099AD"/>
</linearGradient>
</defs>
</svg>
