<svg width="196" height="196" viewBox="0 0 196 196" fill="none" xmlns="http://www.w3.org/2000/svg">
<g opacity="0.6" filter="url(#filter0_f_5518_2175)">
<circle cx="98" cy="98" r="58" fill="url(#paint0_linear_5518_2175)"/>
</g>
<circle opacity="0.3" cx="98" cy="98" r="43" stroke="url(#paint1_linear_5518_2175)" stroke-width="4"/>
<path d="M106.047 55C107.128 55.0188 108.173 55.3828 109.031 56.0352L109.2 56.1699L109.363 56.3105C110.109 56.9853 110.639 57.8667 110.884 58.8428L110.931 59.0537L110.964 59.2402L112.219 68.1699L112.22 68.1719L112.234 68.1787C113.773 68.9212 115.25 69.7862 116.65 70.7646L125.037 67.3887L125.09 67.3682C126.125 66.9738 127.26 66.9338 128.318 67.251L128.529 67.3193L128.736 67.3965C129.693 67.7782 130.51 68.4458 131.075 69.3076L131.192 69.4951L131.211 69.5264L139.201 83.3516L139.308 83.5459C139.823 84.5292 139.999 85.6579 139.803 86.7549C139.595 87.925 138.978 88.9834 138.062 89.7412C138.043 89.7575 138.023 89.7733 138.003 89.7891L130.864 95.3936C130.865 95.4058 130.866 95.4184 130.867 95.4307C130.933 96.2557 130.979 97.1171 130.979 98C130.979 98.0057 130.979 98.0119 130.979 98.0176C130.974 98.8661 130.935 99.7137 130.862 100.559L137.996 106.153L138.058 106.204C138.915 106.915 139.511 107.888 139.754 108.971L139.798 109.188L139.832 109.408C139.978 110.508 139.755 111.628 139.196 112.591L131.205 126.417C131.199 126.427 131.194 126.437 131.188 126.446C130.585 127.463 129.642 128.235 128.525 128.625C127.409 129.015 126.19 128.998 125.085 128.578C125.067 128.571 125.049 128.564 125.031 128.557L116.647 125.181C116.646 125.18 116.644 125.181 116.643 125.181C116.642 125.181 116.64 125.182 116.638 125.183C116.634 125.186 116.629 125.189 116.625 125.192C115.223 126.158 113.75 127.015 112.219 127.758L110.962 136.703C110.957 136.736 110.952 136.77 110.946 136.803C110.744 137.96 110.145 139.011 109.254 139.776C108.362 140.542 107.233 140.974 106.058 140.999C106.037 140.999 106.016 141 105.995 141H89.9539C88.8003 140.98 87.6875 140.567 86.7996 139.83C85.9119 139.093 85.3015 138.076 85.0691 136.946C85.0564 136.884 85.0457 136.822 85.0369 136.76L83.782 127.831L83.781 127.83L83.78 127.828C83.7752 127.826 83.7702 127.824 83.7654 127.821C82.2263 127.079 80.7492 126.214 79.3484 125.235L70.9636 128.611C70.9462 128.618 70.9285 128.625 70.9109 128.632C69.806 129.053 68.5878 129.07 67.4714 128.681C66.3552 128.292 65.4123 127.521 64.8083 126.505C64.8022 126.495 64.7958 126.484 64.7898 126.474L56.7957 112.642L56.7966 112.641C56.2022 111.615 55.9891 110.412 56.197 109.245L56.241 109.027C56.4838 107.944 57.0797 106.969 57.9382 106.259L57.9978 106.211L65.1267 100.612C65.126 100.605 65.1254 100.597 65.1248 100.589C65.0519 99.7444 65.0056 98.8783 65.0056 97.9941C65.0056 97.1214 65.0497 96.2716 65.1248 95.4375L57.988 89.832C57.9597 89.8098 57.9316 89.787 57.9041 89.7637C57.0038 89.0025 56.4002 87.9487 56.199 86.7871C55.9977 85.6255 56.2117 84.4299 56.8035 83.4102L64.7957 69.583L64.8123 69.5537C65.4154 68.5367 66.3581 67.765 67.4744 67.375L67.6853 67.3066C68.6727 67.0098 69.7279 67.024 70.7068 67.3477L70.9148 67.4219L70.9695 67.4434L79.3562 70.8193L79.3611 70.8174L79.3757 70.8076C80.7774 69.8424 82.2499 68.9842 83.781 68.2412L85.0388 59.2969L85.0544 59.1973C85.2568 58.04 85.8546 56.989 86.7458 56.2236L86.9158 56.084C87.7789 55.4055 88.8406 55.0243 89.9421 55.001L90.0056 55H106.047ZM90.6277 84.9795C93.1444 83.5545 96.0165 82.8919 98.8953 83.0645L99.4705 83.1094L99.4753 83.1104L100.118 83.1885C103.314 83.6496 106.283 85.133 108.575 87.4248C110.867 89.7166 112.35 92.6853 112.811 95.8818L112.889 96.5244L112.89 96.5293L112.936 97.1055C113.109 99.984 112.445 102.856 111.02 105.372C109.5 108.056 107.188 110.206 104.399 111.525C101.611 112.845 98.4826 113.269 95.4431 112.742C92.4036 112.215 89.601 110.761 87.4197 108.58C85.2384 106.399 83.7847 103.596 83.2576 100.557C82.7305 97.5173 83.1551 94.389 84.4744 91.6006C85.7937 88.8121 87.9433 86.4995 90.6277 84.9795ZM98.8806 89.0811C97.0418 88.8995 95.1916 89.2907 93.5837 90.2012C91.9759 91.1117 90.6884 92.4968 89.8982 94.167C89.108 95.8372 88.854 97.7108 89.1697 99.5312C89.4855 101.352 90.3562 103.031 91.6628 104.338C92.9694 105.644 94.648 106.515 96.4685 106.831C98.289 107.147 100.163 106.892 101.833 106.102C103.503 105.311 104.889 104.024 105.8 102.416C106.709 100.81 107.1 98.9612 106.92 97.124L106.873 96.7393C106.596 94.8224 105.707 93.0424 104.333 91.668C102.868 90.2031 100.942 89.2882 98.8806 89.0801V89.0811ZM71.0056 97.9941C71.0056 98.6689 71.0416 99.3589 71.1033 100.073H71.1013C71.1905 101.06 71.0356 102.053 70.6472 102.965C70.2555 103.884 69.6407 104.691 68.8582 105.312C68.854 105.316 68.8496 105.319 68.8455 105.322L62.4128 110.371L69.5457 122.713L77.113 119.668L77.114 119.667C77.9209 119.342 78.7874 119.198 79.6531 119.242L80.0232 119.272L80.3914 119.325C81.1231 119.454 81.8246 119.719 82.4597 120.104L82.7712 120.308L82.7771 120.312L83.2078 120.606C84.2189 121.284 85.2765 121.889 86.3728 122.418H86.3718C87.2591 122.843 88.0285 123.479 88.6121 124.271C89.1253 124.968 89.4816 125.767 89.657 126.611L89.7205 126.977L89.7224 126.986L90.8484 135H105.142L106.278 126.917C106.414 125.946 106.786 125.024 107.362 124.23L107.588 123.94C108.132 123.28 108.813 122.743 109.586 122.367L109.589 122.366C110.846 121.756 112.056 121.052 113.208 120.26L113.52 120.057C114.261 119.606 115.092 119.32 115.956 119.221C116.82 119.121 117.694 119.21 118.518 119.48L118.869 119.607L118.88 119.611L126.447 122.658L133.58 110.316L125.843 104.246C124.999 103.585 124.573 102.525 124.723 101.464C124.887 100.316 124.972 99.159 124.979 98L124.973 97.4893C124.961 96.9751 124.93 96.4491 124.886 95.9072V95.9062C124.802 94.9225 124.961 93.9329 125.351 93.0254C125.746 92.1061 126.365 91.2999 127.151 90.6807L127.155 90.6777L133.586 85.627L126.453 73.2861L118.886 76.333C117.964 76.704 116.964 76.8393 115.976 76.7275C114.989 76.6157 114.044 76.26 113.228 75.6924L113.223 75.6885C112.083 74.8913 110.881 74.1866 109.628 73.582V73.5811C108.741 73.156 107.971 72.5207 107.387 71.7285C106.801 70.932 106.42 70.0025 106.279 69.0234L106.278 69.0137L105.152 61H90.8582L89.7224 69.083L89.7214 69.082C89.5858 70.0531 89.2147 70.9763 88.6384 71.7695C88.0614 72.5638 87.2968 73.2037 86.4138 73.6328L86.4119 73.6338C85.1538 74.2436 83.9427 74.947 82.7908 75.7393L82.7917 75.7402C81.9759 76.3087 81.0315 76.6653 80.0437 76.7793C79.0559 76.8932 78.0554 76.7604 77.1316 76.3926L77.1208 76.3887L69.5525 73.3408L62.4197 85.6826L68.8298 90.7197H68.8308C69.515 91.2563 70.0729 91.9345 70.4675 92.7061L70.6267 93.042L70.7644 93.3877C71.0604 94.2021 71.1766 95.073 71.1033 95.9395C71.1028 95.9453 71.1028 95.9512 71.1023 95.957C71.0403 96.6408 71.0056 97.316 71.0056 97.9941Z" fill="white"/>
<defs>
<filter id="filter0_f_5518_2175" x="0" y="0" width="196" height="196" filterUnits="userSpaceOnUse" color-interpolation-filters="sRGB">
<feFlood flood-opacity="0" result="BackgroundImageFix"/>
<feBlend mode="normal" in="SourceGraphic" in2="BackgroundImageFix" result="shape"/>
<feGaussianBlur stdDeviation="20" result="effect1_foregroundBlur_5518_2175"/>
</filter>
<linearGradient id="paint0_linear_5518_2175" x1="52.992" y1="57.69" x2="147.878" y2="64.4087" gradientUnits="userSpaceOnUse">
<stop stop-color="#BB0DBA"/>
<stop offset="0.488034" stop-color="#5C18DD"/>
<stop offset="1" stop-color="#0099AD"/>
</linearGradient>
<linearGradient id="paint1_linear_5518_2175" x1="63.08" y1="66.725" x2="136.699" y2="71.9378" gradientUnits="userSpaceOnUse">
<stop stop-color="#BB0DBA"/>
<stop offset="0.488034" stop-color="#5C18DD"/>
<stop offset="1" stop-color="#0099AD"/>
</linearGradient>
</defs>
</svg>
