<svg width="90" height="91" viewBox="0 0 90 91" fill="none" xmlns="http://www.w3.org/2000/svg">
<g clip-path="url(#clip0_5518_2211)">
<circle opacity="0.3" cx="45" cy="45.5" r="45" fill="#0099AD"/>
<path d="M0 45.5001C0 57.4348 4.74106 68.8807 13.1802 77.3199C21.6193 85.759 33.0653 90.5001 45 90.5001C56.9347 90.5001 68.3807 85.759 76.8198 77.3199C85.2589 68.8807 90 57.4348 90 45.5001C90 45.5001 76.3266 41.2144 67.5 41.2144C58.6734 41.2144 45 45.5001 45 45.5001C45 45.5001 31.3266 49.7858 22.5 49.7858C13.6734 49.7858 0 45.5001 0 45.5001Z" fill="#0099AD"/>
<path d="M29.9808 15.9007C27.3343 15.9198 24.5247 16.8925 22.0614 18.7606C21.7218 18.635 21.3669 18.5554 21.0061 18.5239C19.7095 18.4115 18.3775 18.9168 17.5018 19.9907C16.3849 21.3604 16.3293 23.266 17.2252 24.6902C14.7756 29.8195 15.5476 35.4775 19.2383 38.4667C22.0091 40.7109 25.7814 41.0406 29.5021 39.6075L30.1288 39.3669L30.6546 39.7899L36.456 44.4855L38.5236 41.9514L33.0569 37.5236L34.5247 35.723L39.9913 40.147L41.9031 37.8029L36.4363 33.3751L37.9041 31.5745L43.3709 36.0023L45.4346 33.4721L39.6369 28.7763L39.1113 28.3495L39.2203 27.6857C39.867 23.7632 38.7751 20.1546 36.0042 17.9102C34.3185 16.5449 32.2065 15.8845 29.9808 15.9007ZM29.7004 19.0633L35.1633 20.7862L30.7635 26.1804L27.742 25.2297L29.7004 19.0633ZM20.5857 20.8133C20.654 20.8113 20.7236 20.8149 20.792 20.8212C21.1206 20.8514 21.4461 20.9783 21.7265 21.2053C22.4741 21.8108 22.5832 22.8704 21.9757 23.6153C21.3684 24.3602 20.3053 24.473 19.5579 23.8674C18.8103 23.262 18.7012 22.2026 19.3087 21.4577C19.6409 21.0501 20.1072 20.8284 20.5857 20.8133ZM27.676 28.2331L34.5756 29.6692L30.4988 34.6675L27.676 28.2331ZM24.7402 28.9124L26.2937 31.6638L21.8938 37.058L19.0867 32.0829L24.7402 28.9124ZM44.0564 38.8469L41.319 42.2035L56.9131 54.8315L53.8489 58.588L56.0371 60.3613L58.5135 57.3226L60.3201 58.7858L57.8439 61.8243L59.4948 63.1633L57.4156 65.7128L52.6653 71.2351L54.4329 72.7447L58.4942 68.0258L60.8926 69.023L63.7466 65.5225L65.5533 66.9856L60.4334 73.2645L62.6994 75.0999L70.3504 65.7168L72.2741 67.2767L75.0112 63.9199L44.0564 38.8469Z" fill="white"/>
</g>
<rect x="1" y="1.5" width="88" height="88" rx="44" stroke="url(#paint0_linear_5518_2211)" stroke-width="2"/>
<defs>
<linearGradient id="paint0_linear_5518_2211" x1="10.08" y1="14.225" x2="83.6988" y2="19.4378" gradientUnits="userSpaceOnUse">
<stop stop-color="#BB0DBA"/>
<stop offset="0.488034" stop-color="#5C18DD"/>
<stop offset="1" stop-color="#0099AD"/>
</linearGradient>
<clipPath id="clip0_5518_2211">
<rect y="0.5" width="90" height="90" rx="45" fill="white"/>
</clipPath>
</defs>
</svg>
