<svg width="90" height="91" viewBox="0 0 90 91" fill="none" xmlns="http://www.w3.org/2000/svg">
<g clip-path="url(#clip0_5518_2206)">
<circle cx="45" cy="45.5" r="45" fill="#0099AD"/>
<path d="M29.9807 15.9007C27.3343 15.9198 24.5246 16.8925 22.0613 18.7606C21.7218 18.635 21.3668 18.5554 21.006 18.5239C19.7095 18.4115 18.3774 18.9168 17.5017 19.9907C16.3848 21.3604 16.3293 23.266 17.2251 24.6902C14.7756 29.8195 15.5476 35.4775 19.2382 38.4667C22.009 40.7109 25.7813 41.0406 29.502 39.6075L30.1287 39.3669L30.6545 39.7899L36.456 44.4855L38.5235 41.9514L33.0569 37.5236L34.5246 35.723L39.9913 40.147L41.9031 37.8029L36.4363 33.3751L37.904 31.5745L43.3708 36.0023L45.4345 33.4721L39.6368 28.7763L39.1112 28.3495L39.2203 27.6857C39.8669 23.7632 38.7751 20.1546 36.0042 17.9102C34.3184 16.5449 32.2065 15.8845 29.9807 15.9007ZM29.7003 19.0633L35.1633 20.7862L30.7634 26.1804L27.7419 25.2297L29.7003 19.0633ZM20.5856 20.8133C20.6539 20.8113 20.7235 20.8149 20.792 20.8212C21.1205 20.8514 21.4461 20.9783 21.7264 21.2053C22.474 21.8108 22.5831 22.8704 21.9756 23.6153C21.3683 24.3602 20.3053 24.473 19.5578 23.8674C18.8102 23.262 18.7011 22.2026 19.3086 21.4577C19.6408 21.0501 20.1072 20.8284 20.5856 20.8133ZM27.6759 28.2331L34.5756 29.6692L30.4988 34.6675L27.6759 28.2331ZM24.7402 28.9124L26.2936 31.6638L21.8938 37.058L19.0866 32.0829L24.7402 28.9124ZM44.0564 38.8469L41.319 42.2035L56.9131 54.8315L53.8489 58.588L56.0371 60.3613L58.5134 57.3226L60.3201 58.7858L57.8438 61.8243L59.4947 63.1633L57.4156 65.7128L52.6652 71.2351L54.4329 72.7447L58.4941 68.0258L60.8926 69.023L63.7466 65.5225L65.5532 66.9856L60.4333 73.2645L62.6993 75.0999L70.3503 65.7168L72.2741 67.2767L75.0111 63.9199L44.0564 38.8469Z" fill="white"/>
</g>
<rect x="1" y="1.5" width="88" height="88" rx="44" stroke="url(#paint0_linear_5518_2206)" stroke-width="2"/>
<defs>
<linearGradient id="paint0_linear_5518_2206" x1="10.08" y1="14.225" x2="83.6988" y2="19.4378" gradientUnits="userSpaceOnUse">
<stop stop-color="#BB0DBA"/>
<stop offset="0.488034" stop-color="#5C18DD"/>
<stop offset="1" stop-color="#0099AD"/>
</linearGradient>
<clipPath id="clip0_5518_2206">
<rect y="0.5" width="90" height="90" rx="45" fill="white"/>
</clipPath>
</defs>
</svg>
