<svg width="60" height="60" viewBox="0 0 60 60" fill="none" xmlns="http://www.w3.org/2000/svg">
<circle opacity="0.3" cx="30" cy="30" r="28" stroke="url(#paint0_linear_5518_1978)" stroke-width="4"/>
<path d="M34.4284 19.3335C36.8116 19.3335 38.7616 21.3134 38.7617 23.7332V36.9338H34.4284V52.3335H25.7617V36.9338H21.4284V23.7332C21.4285 21.3134 23.3785 19.3335 25.7617 19.3335H34.4284Z" fill="#0099AD"/>
<path d="M20.6901 21.0002C20.2503 21.8154 20 22.7474 20 23.7332V38.2671H23V49.0002H15.6667V35.9338H12V24.7332C12.0001 22.68 13.6501 21.0002 15.6667 21.0002H20.6901Z" fill="#0099AD"/>
<path d="M44.3333 21.0002C46.3499 21.0002 47.9999 22.68 48 24.7332V35.9338H44.3333V49.0002H37V38.2671H40V23.7332C40 22.7474 39.7497 21.8154 39.3099 21.0002H44.3333Z" fill="#0099AD"/>
<path d="M19.3333 11.6668C21.3583 11.6668 22.9999 13.3382 23 15.3999C23 17.4618 21.3584 19.1336 19.3333 19.1336C17.3083 19.1336 15.6667 17.4618 15.6667 15.3999C15.6668 13.3382 17.3084 11.6668 19.3333 11.6668Z" fill="#0099AD"/>
<path d="M40.6667 11.6668C42.6916 11.6668 44.3332 13.3382 44.3333 15.3999C44.3333 17.4618 42.6917 19.1336 40.6667 19.1336C38.6416 19.1336 37 17.4618 37 15.3999C37.0001 13.3382 38.6417 11.6668 40.6667 11.6668Z" fill="#0099AD"/>
<path d="M30.0951 8.3335C32.4882 8.3335 34.4282 10.3033 34.4284 12.7332C34.4284 15.1633 32.4883 17.1336 30.0951 17.1336C27.7018 17.1336 25.7617 15.1633 25.7617 12.7332C25.7619 10.3033 27.7019 8.33353 30.0951 8.3335Z" fill="#0099AD"/>
<defs>
<linearGradient id="paint0_linear_5518_1978" x1="6.72" y1="9.15" x2="55.7992" y2="12.6252" gradientUnits="userSpaceOnUse">
<stop stop-color="#BB0DBA"/>
<stop offset="0.488034" stop-color="#5C18DD"/>
<stop offset="1" stop-color="#0099AD"/>
</linearGradient>
</defs>
</svg>
