<svg width="60" height="60" viewBox="0 0 60 60" fill="none" xmlns="http://www.w3.org/2000/svg">
<circle opacity="0.3" cx="30" cy="30" r="28" stroke="url(#paint0_linear_5518_1988)" stroke-width="4"/>
<path d="M15.0114 21.5917C15.6089 22.4221 16.3897 23.0486 17.2768 23.5564C20.2351 25.2468 23.8421 24.891 27.0423 25.84C27.3832 25.9438 27.7314 26.0624 28.076 26.1625C28.4426 26.27 29.0181 26.6518 29.436 26.4739C29.8282 26.244 29.8612 25.5471 29.9969 25.1875C30.1252 24.8465 30.2351 24.4943 30.3598 24.157C31.5181 20.9949 33.9485 18.2777 34.3737 14.8672C34.502 13.8441 34.469 12.8358 34.1684 11.8534C33.8679 10.8673 33.2117 9.56988 32.4126 8.88779C30.5321 7.28265 28.4756 6.86005 26.4521 7.90543L26.2248 8.02405C25.4367 8.43924 24.7549 9.01382 24.1794 9.69221C23.5635 10.4225 23.2739 11.1935 22.8047 11.9943C22.6251 12.2945 22.2512 12.4836 21.9066 12.4502C20.9902 12.3538 20.2057 12.1277 19.26 12.1944C18.3765 12.2575 17.5151 12.4688 16.7123 12.858C16.639 12.8951 16.562 12.9321 16.485 12.9729C14.4506 13.9923 13.5525 15.9163 13.7064 18.4C13.7687 19.4528 14.4066 20.7576 15.0114 21.5917ZM21.628 38.733C21.1991 36.0268 21.848 33.1168 20.8032 30.533C20.488 29.7583 20.0664 29.0576 19.4689 28.4831C18.8641 27.9048 17.8853 27.2449 17.0532 27.0892C15.0847 26.7111 13.4608 27.2449 12.4381 28.7982L12.3245 28.9761C11.9322 29.5878 11.672 30.2735 11.5327 30.9816C11.3824 31.7489 11.485 32.4088 11.4667 33.1687C11.4593 33.4579 11.2687 33.7396 11.0121 33.8582C10.3266 34.1622 9.68147 34.3179 9.03997 34.7442C8.43513 35.1483 7.91093 35.645 7.4967 36.2455L7.38307 36.4161C6.342 37.9619 6.46664 39.6819 7.55536 41.3835C8.01357 42.1063 8.98865 42.7736 9.74379 43.1183C10.4989 43.4631 11.2981 43.5928 12.1265 43.5928C14.8905 43.5966 17.3062 41.8913 19.9455 41.2685C20.2277 41.2018 20.521 41.1462 20.8069 41.0758C21.1112 41.0016 21.6684 41.0424 21.892 40.7496C22.0789 40.4271 21.8296 39.9229 21.7857 39.6078C21.738 39.3187 21.6757 39.0221 21.628 38.733ZM51.9948 23.5935L51.8409 23.4563C51.2983 22.9744 50.6678 22.6149 49.9897 22.3702C49.2639 22.1107 48.6004 22.1144 47.8636 21.9847C47.585 21.9365 47.3357 21.7029 47.2587 21.4249C47.0608 20.6946 47.0021 20.0311 46.6795 19.3193C46.3753 18.6595 45.9684 18.0626 45.4405 17.5585L45.2902 17.4213C43.9302 16.1535 42.2293 16.0275 40.4038 16.8653C39.6304 17.2174 38.8386 18.096 38.3877 18.8003C37.9405 19.501 37.6949 20.2831 37.5739 21.1135C37.167 23.8789 38.483 26.5443 38.7029 29.2764C38.7249 29.5655 38.7359 29.8695 38.7652 30.1623C38.7946 30.4774 38.6699 31.0298 38.9265 31.2967C39.2161 31.5265 39.744 31.356 40.0556 31.3523C40.3488 31.3523 40.6458 31.3375 40.9354 31.3338C43.6443 31.3004 46.3936 32.3754 49.0806 31.7119C49.8834 31.5117 50.6312 31.1929 51.28 30.6776C51.9325 30.1586 52.7206 29.2764 52.9956 28.4645C53.6517 26.5517 53.3695 24.8428 51.9948 23.5935ZM34.7989 42.7439C34.6267 42.0618 34.3554 41.4279 33.9228 40.8793C33.4866 40.3233 32.7461 39.6634 32.0717 39.4299C30.4734 38.8812 29.0584 39.137 28.0284 40.3121L27.9111 40.4419C27.5178 40.9078 27.2155 41.4449 27.0203 42.0248C26.8077 42.6439 26.815 43.2073 26.7087 43.8375C26.6684 44.0748 26.4778 44.2898 26.2505 44.3565C25.6457 44.527 25.0885 44.5826 24.502 44.8644C23.9558 45.1275 23.4572 45.4797 23.043 45.932L22.9257 46.0654C21.881 47.2257 21.7857 48.6789 22.4931 50.2247C22.7937 50.8808 23.5232 51.5518 24.1171 51.9299C24.7072 52.308 25.3597 52.5082 26.0489 52.6083C28.351 52.9345 30.5614 51.8002 32.8378 51.5926C33.0797 51.5703 33.3327 51.5592 33.5783 51.537C33.8385 51.511 34.2967 51.6148 34.5204 51.3924C34.7146 51.1477 34.5643 50.6992 34.5607 50.4286C34.557 50.1802 34.5423 49.9281 34.535 49.6835C34.491 47.374 35.3708 45.0238 34.7989 42.7439ZM50.2133 41.4057C49.8284 41.0313 49.3702 40.7496 48.8753 40.542C48.3474 40.327 47.8526 40.3121 47.3137 40.1898C47.1084 40.1453 46.9288 39.9637 46.8811 39.7561C46.7565 39.2112 46.7345 38.7144 46.5146 38.1806C46.3093 37.6802 46.0234 37.2242 45.6458 36.8387L45.5395 36.7275C44.5717 35.7488 43.3144 35.6042 41.9324 36.1677C41.3496 36.4087 40.7374 37.0314 40.3818 37.5393C40.0299 38.0472 39.8246 38.6217 39.711 39.2297C39.3261 41.2648 40.2205 43.2815 40.3012 45.3166C40.3122 45.5353 40.3122 45.7577 40.3158 45.9727C40.3305 46.2063 40.2205 46.6104 40.4038 46.8217C40.6091 46.9996 41.0087 46.8884 41.2396 46.8958C41.4559 46.9032 41.6795 46.9032 41.8921 46.9069C43.9009 46.9662 45.9061 47.8485 47.9149 47.437C48.5197 47.3147 49.0806 47.0997 49.5791 46.7364C50.0776 46.3731 50.6861 45.7429 50.9171 45.1535C51.4633 43.756 51.302 42.4807 50.3232 41.5132L50.2133 41.4057Z" fill="#BB0DBA"/>
<defs>
<linearGradient id="paint0_linear_5518_1988" x1="6.72" y1="9.15" x2="55.7992" y2="12.6252" gradientUnits="userSpaceOnUse">
<stop stop-color="#BB0DBA"/>
<stop offset="0.488034" stop-color="#5C18DD"/>
<stop offset="1" stop-color="#0099AD"/>
</linearGradient>
</defs>
</svg>
