<svg width="60" height="60" viewBox="0 0 60 60" fill="none" xmlns="http://www.w3.org/2000/svg">
<circle opacity="0.3" cx="30" cy="30" r="28" stroke="url(#paint0_linear_5518_1998)" stroke-width="4"/>
<path d="M36.11 16.4536C37.1338 16.1908 38.2077 16.1915 39.2311 16.4556C40.2545 16.7196 41.1942 17.2386 41.9635 17.9634C42.7159 18.6722 43.2808 19.5558 43.61 20.535L52.0137 43.2329L52.0449 43.3221C52.3908 44.4117 52.4262 45.5766 52.1478 46.6854C51.8693 47.7943 51.2878 48.8043 50.4674 49.6007C49.647 50.3972 48.6204 50.9487 47.5033 51.1925C46.3861 51.4364 45.2233 51.3624 44.1458 50.9796C44.1357 50.976 44.1253 50.9724 44.1152 50.9686L21.4668 42.5031V42.5024C20.4926 42.1513 19.6206 41.5639 18.9303 40.7915C18.2324 40.0105 17.7421 39.0661 17.5039 38.046C17.2658 37.0261 17.2877 35.9624 17.5671 34.953C17.8464 33.9435 18.3744 33.02 19.1035 32.2681L19.123 32.2479L33.3294 18.0031L33.3756 17.9582C34.1458 17.2344 35.0864 16.7164 36.11 16.4536ZM38.2318 20.3286C37.8622 20.2333 37.4745 20.2331 37.1048 20.3279C36.7402 20.4215 36.4041 20.605 36.127 20.8618L21.9688 35.0591C21.71 35.3282 21.5219 35.6586 21.4219 36.02C21.3211 36.3843 21.3131 36.7684 21.3991 37.1365C21.4851 37.5048 21.6624 37.8453 21.9134 38.1261C22.133 38.3717 22.403 38.5649 22.7038 38.6932L22.8346 38.7446L22.8672 38.7563L45.4844 47.2101H45.485C45.8592 47.343 46.2628 47.3689 46.6504 47.2843C47.038 47.1997 47.395 47.0079 47.681 46.7303C47.967 46.4526 48.1706 46.0999 48.2682 45.7114C48.3636 45.3315 48.3533 44.9328 48.2396 44.5584L39.8542 21.9119C39.8446 21.8862 39.8359 21.86 39.8275 21.8338C39.7088 21.4675 39.4998 21.1377 39.2207 20.8748C38.9417 20.6119 38.6014 20.424 38.2318 20.3286ZM10.612 26.7134C12.5492 25.6294 14.8183 25.3021 16.9824 25.7947C18.0594 26.04 18.734 27.1117 18.4889 28.1886C18.2437 29.2656 17.1714 29.9404 16.0944 29.6951C14.8959 29.4223 13.639 29.6033 12.5651 30.2043C11.6012 30.7435 10.3824 30.3992 9.8431 29.4354C9.30372 28.4714 9.64806 27.2527 10.612 26.7134ZM16.2188 13.5649C16.3706 12.471 17.3806 11.7069 18.4746 11.8585C19.5687 12.0102 20.3326 13.0204 20.181 14.1144C20.0194 15.2799 20.2616 16.4629 20.862 17.4673L20.987 17.6658L21.0417 17.7531C21.5801 18.6639 21.3148 19.8469 20.4225 20.4373C19.5301 21.0277 18.3374 20.8093 17.7096 19.9575L17.651 19.8729L17.429 19.52C16.3617 17.7348 15.9319 15.6338 16.2188 13.5649ZM25.2155 6.04735C25.5575 4.9971 26.686 4.42287 27.7363 4.7648C28.7865 5.10681 29.3608 6.2354 29.0189 7.28563C28.0108 10.3821 28.1077 13.7304 29.2871 16.7583L29.4049 17.05L29.4421 17.1463C29.7979 18.1427 29.313 19.254 28.3249 19.6645C27.3367 20.075 26.2075 19.6342 25.7526 18.6789L25.7109 18.5851L25.5599 18.2101C24.0454 14.322 23.9211 10.0232 25.2155 6.04735Z" fill="white"/>
<path d="M8.02864 15.0697C7.85521 15.0697 7.72395 15.2092 7.72395 15.3698L7.72981 15.429C7.75741 15.5632 7.87697 15.6699 8.02864 15.6699C8.18029 15.6699 8.29989 15.5632 8.32747 15.429L8.33333 15.3698L8.32747 15.3105C8.30381 15.1954 8.21234 15.1008 8.09114 15.0762L8.02864 15.0697ZM11.724 15.3698C11.7239 17.408 10.0746 19.0696 8.02864 19.0697C6.04668 19.0697 4.43664 17.5104 4.33789 15.5599L4.33333 15.3698L4.33789 15.1797C4.43663 13.2292 6.04667 11.6699 8.02864 11.6699L8.2194 11.6745C10.1761 11.774 11.724 13.3953 11.724 15.3698Z" fill="white"/>
<defs>
<linearGradient id="paint0_linear_5518_1998" x1="6.72" y1="9.15" x2="55.7992" y2="12.6252" gradientUnits="userSpaceOnUse">
<stop stop-color="#BB0DBA"/>
<stop offset="0.488034" stop-color="#5C18DD"/>
<stop offset="1" stop-color="#0099AD"/>
</linearGradient>
</defs>
</svg>
