<svg width="196" height="196" viewBox="0 0 196 196" fill="none" xmlns="http://www.w3.org/2000/svg">
<g opacity="0.6" filter="url(#filter0_f_5518_1876)">
<circle cx="98" cy="98" r="58" fill="url(#paint0_linear_5518_1876)"/>
</g>
<circle opacity="0.3" cx="98" cy="98" r="43" stroke="url(#paint1_linear_5518_1876)" stroke-width="4"/>
<path d="M131.666 63.8125H64.3334V104.146C64.3334 113.074 67.88 121.638 74.1937 127.952C80.5074 134.266 89.0714 137.812 98.0004 137.812C106.929 137.812 115.492 134.266 121.806 127.952C128.12 121.638 131.666 113.074 131.666 104.146V63.8125ZM120.121 86.2676L94.6664 111.722L79.2123 96.2676L83.4545 92.0244L94.6664 103.235L115.878 82.0244L120.121 86.2676ZM137.666 104.146C137.666 114.666 133.487 124.755 126.048 132.194C118.609 139.633 108.52 143.812 98.0004 143.812C87.4801 143.812 77.3905 139.633 69.9515 132.194C62.5126 124.755 58.3334 114.666 58.3334 104.146V57.8125H137.666V104.146Z" fill="white"/>
<defs>
<filter id="filter0_f_5518_1876" x="0" y="0" width="196" height="196" filterUnits="userSpaceOnUse" color-interpolation-filters="sRGB">
<feFlood flood-opacity="0" result="BackgroundImageFix"/>
<feBlend mode="normal" in="SourceGraphic" in2="BackgroundImageFix" result="shape"/>
<feGaussianBlur stdDeviation="20" result="effect1_foregroundBlur_5518_1876"/>
</filter>
<linearGradient id="paint0_linear_5518_1876" x1="52.992" y1="57.69" x2="147.878" y2="64.4087" gradientUnits="userSpaceOnUse">
<stop stop-color="#BB0DBA"/>
<stop offset="0.488034" stop-color="#5C18DD"/>
<stop offset="1" stop-color="#0099AD"/>
</linearGradient>
<linearGradient id="paint1_linear_5518_1876" x1="63.08" y1="66.725" x2="136.699" y2="71.9378" gradientUnits="userSpaceOnUse">
<stop stop-color="#BB0DBA"/>
<stop offset="0.488034" stop-color="#5C18DD"/>
<stop offset="1" stop-color="#0099AD"/>
</linearGradient>
</defs>
</svg>
