<svg width="196" height="196" viewBox="0 0 196 196" fill="none" xmlns="http://www.w3.org/2000/svg">
<g opacity="0.6" filter="url(#filter0_f_5518_1907)">
<circle cx="98" cy="98" r="58" fill="url(#paint0_linear_5518_1907)"/>
</g>
<circle opacity="0.3" cx="98" cy="98" r="43" stroke="url(#paint1_linear_5518_1907)" stroke-width="4"/>
<path d="M134.375 113.469C134.375 106.582 128.793 101 121.906 101C115.02 101 109.438 106.582 109.438 113.469C109.438 120.355 115.02 125.938 121.906 125.938C128.793 125.938 134.375 120.355 134.375 113.469ZM140.375 113.469C140.375 123.669 132.106 131.938 121.906 131.938C111.706 131.938 103.438 123.669 103.438 113.469C103.438 103.269 111.706 95 121.906 95C132.106 95 140.375 103.269 140.375 113.469Z" fill="white"/>
<path d="M86.5625 113.469C86.5625 106.582 80.9801 101 74.0938 101C67.2074 101 61.625 106.582 61.625 113.469C61.625 120.355 67.2074 125.938 74.0938 125.938C80.9801 125.938 86.5625 120.355 86.5625 113.469ZM92.5625 113.469C92.5625 123.669 84.2938 131.938 74.0938 131.938C63.8937 131.938 55.625 123.669 55.625 113.469C55.625 103.269 63.8937 95 74.0938 95C84.2938 95 92.5625 103.269 92.5625 113.469Z" fill="white"/>
<path d="M103.437 113.469V102.989C102.24 102.703 100.419 102.406 98 102.406C95.5807 102.406 93.7601 102.703 92.5625 102.989V113.469C92.5625 115.126 91.2193 116.469 89.5625 116.469C87.9056 116.469 86.5625 115.126 86.5625 113.469V75.5C86.5625 73.7546 86.0364 72.3824 85.2705 71.4951C84.5479 70.6581 83.4574 70.0625 81.8281 70.0625C79.4625 70.0625 78.2193 70.7483 77.3398 71.6406C76.3053 72.6904 75.5212 74.2745 74.5976 76.6055C74.595 76.6123 74.5921 76.6203 74.5889 76.6289C74.5726 76.6716 74.5482 76.735 74.5166 76.8184C74.4533 76.9854 74.3606 77.2322 74.2402 77.5498C73.9995 78.185 73.651 79.1047 73.2207 80.2422C72.36 82.5171 71.1715 85.6631 69.8594 89.1475C67.8899 94.3774 65.6454 100.362 63.8144 105.307L62.1465 109.839C61.5786 111.395 59.8563 112.197 58.2998 111.629C56.7433 111.061 55.9418 109.339 56.5098 107.782L58.1855 103.228C60.0244 98.2613 62.275 92.2623 64.2441 87.0332C65.5576 83.5453 66.747 80.3961 67.6084 78.1191C68.0391 76.9807 68.3879 76.0599 68.6289 75.4238C68.7494 75.1058 68.8437 74.8588 68.9072 74.6914C68.9389 74.6078 68.9632 74.5439 68.9795 74.501C68.9876 74.4796 68.9929 74.463 68.9971 74.4521C68.999 74.447 69.0009 74.4432 69.0019 74.4404C69.0025 74.4391 69.0027 74.4372 69.0029 74.4365H69.0039C69.0113 74.4391 69.1455 74.4898 71.6074 75.4238L69.0039 74.4355C69.009 74.422 69.0142 74.408 69.0195 74.3945L69.3769 73.5098C70.2416 71.4191 71.3379 69.1826 73.0664 67.4287C75.1972 65.2668 78.0414 64.0625 81.8281 64.0625C85.1207 64.0625 87.8974 65.3571 89.8115 67.5742C91.6822 69.7411 92.5625 72.5874 92.5625 75.5V81.3955C94.0224 81.1351 95.8394 80.9375 98 80.9375C100.161 80.9375 101.978 81.1351 103.437 81.3955V75.5C103.437 72.5874 104.318 69.7411 106.188 67.5742C108.103 65.3571 110.879 64.0625 114.172 64.0625C117.959 64.0625 120.803 65.2668 122.934 67.4287C124.662 69.1826 125.758 71.4191 126.623 73.5098L126.98 74.3945L126.996 74.4355L124.191 75.5C126.847 74.4924 126.989 74.4392 126.996 74.4365H126.997C126.997 74.4372 126.998 74.4391 126.998 74.4404C126.999 74.4432 127.001 74.447 127.003 74.4521C127.007 74.463 127.012 74.4796 127.02 74.501C127.037 74.5439 127.061 74.6078 127.093 74.6914C127.156 74.8588 127.251 75.1058 127.371 75.4238C127.612 76.0599 127.961 76.9807 128.392 78.1191C129.253 80.3961 130.442 83.5453 131.756 87.0332C133.725 92.2623 135.976 98.2613 137.814 103.228L139.49 107.782L139.539 107.929C140.007 109.445 139.208 111.079 137.7 111.629C136.192 112.179 134.529 111.444 133.91 109.982L133.854 109.839L132.186 105.307C130.355 100.362 128.11 94.3774 126.141 89.1475C124.828 85.6631 123.64 82.5171 122.779 80.2422C122.349 79.1047 122 78.185 121.76 77.5498C121.639 77.2322 121.547 76.9854 121.483 76.8184C121.452 76.735 121.427 76.6716 121.411 76.6289C121.408 76.6203 121.405 76.6123 121.402 76.6055L121.062 75.7656C120.279 73.8866 119.565 72.5592 118.66 71.6406C117.781 70.7483 116.538 70.0625 114.172 70.0625C112.543 70.0625 111.452 70.6581 110.729 71.4951C109.964 72.3824 109.437 73.7546 109.437 75.5V113.469C109.437 115.126 108.094 116.469 106.437 116.469C104.781 116.469 103.437 115.126 103.437 113.469ZM98 86.9375C95.5807 86.9375 93.7601 87.2341 92.5625 87.5205V96.8643C94.0224 96.6039 95.8394 96.4062 98 96.4062C100.161 96.4062 101.978 96.6039 103.437 96.8643V87.5205C102.24 87.2341 100.419 86.9375 98 86.9375Z" fill="white"/>
<defs>
<filter id="filter0_f_5518_1907" x="0" y="0" width="196" height="196" filterUnits="userSpaceOnUse" color-interpolation-filters="sRGB">
<feFlood flood-opacity="0" result="BackgroundImageFix"/>
<feBlend mode="normal" in="SourceGraphic" in2="BackgroundImageFix" result="shape"/>
<feGaussianBlur stdDeviation="20" result="effect1_foregroundBlur_5518_1907"/>
</filter>
<linearGradient id="paint0_linear_5518_1907" x1="52.992" y1="57.69" x2="147.878" y2="64.4087" gradientUnits="userSpaceOnUse">
<stop stop-color="#BB0DBA"/>
<stop offset="0.488034" stop-color="#5C18DD"/>
<stop offset="1" stop-color="#0099AD"/>
</linearGradient>
<linearGradient id="paint1_linear_5518_1907" x1="63.08" y1="66.725" x2="136.699" y2="71.9378" gradientUnits="userSpaceOnUse">
<stop stop-color="#BB0DBA"/>
<stop offset="0.488034" stop-color="#5C18DD"/>
<stop offset="1" stop-color="#0099AD"/>
</linearGradient>
</defs>
</svg>
