<svg width="196" height="196" viewBox="0 0 196 196" fill="none" xmlns="http://www.w3.org/2000/svg">
<g opacity="0.6" filter="url(#filter0_f_5518_1884)">
<circle cx="98" cy="98" r="58" fill="url(#paint0_linear_5518_1884)"/>
</g>
<circle opacity="0.3" cx="98" cy="98" r="43" stroke="url(#paint1_linear_5518_1884)" stroke-width="4"/>
<path fill-rule="evenodd" clip-rule="evenodd" d="M126.745 57.9022L128.745 56.4023L128.755 56.4173L128.78 56.4523L128.88 56.5848C129.448 57.3513 130.005 58.1263 130.55 58.9095C131.919 60.8578 133.234 62.8433 134.494 64.8638C135.926 67.1735 137.391 69.7307 138.506 72.1454C139.576 74.4676 140.493 77.0023 140.493 79.1495C140.493 86.7785 134.374 92.8978 126.745 92.8978C124.938 92.9044 123.147 92.5533 121.476 91.8647C119.805 91.1761 118.287 90.1637 117.009 88.8857C115.731 87.6078 114.718 86.0895 114.03 84.4185C113.341 82.7475 112.99 80.9568 112.997 79.1495C112.997 77.0023 113.914 74.4676 114.984 72.1454C116.099 69.7307 117.564 67.171 118.996 64.8638C120.76 62.0331 122.633 59.2714 124.61 56.5848L124.71 56.4523L124.735 56.4173L124.745 56.4023L126.745 57.9022ZM123.245 67.5009C124.367 65.7018 125.534 63.9314 126.745 62.1916C127.956 63.9314 129.123 65.7018 130.245 67.5009C131.624 69.7232 132.972 72.0879 133.967 74.2401C135.004 76.4898 135.494 78.1721 135.494 79.1495C135.494 84.0189 131.614 87.8984 126.745 87.8984C125.594 87.905 124.454 87.6833 123.389 87.2459C122.325 86.8086 121.358 86.1644 120.544 85.3507C119.73 84.5369 119.086 83.5698 118.649 82.5054C118.211 81.4409 117.989 80.3003 117.996 79.1495C117.996 78.1721 118.486 76.4898 119.523 74.2401C120.518 72.0879 121.866 69.7232 123.245 67.5009Z" fill="white"/>
<path d="M126.745 57.9023L128.745 56.4025L126.745 53.7354L124.745 56.4025L126.745 57.9023Z" fill="white"/>
<path fill-rule="evenodd" clip-rule="evenodd" d="M97.5261 73.9374L95.5313 71.2002L93.4991 73.8999L93.4916 73.9099L93.4716 73.9349L93.4041 74.0273L93.1541 74.3673C91.9079 76.0785 90.728 77.8371 89.617 79.6391C88.6008 81.2608 87.6891 82.9457 86.8874 84.6835C86.16 86.3083 85.4976 88.1831 85.4976 89.8654C85.5001 95.5771 89.7595 100.397 95.4988 100.397C101.238 100.397 105.498 95.5771 105.498 89.8629C105.498 88.2381 104.82 86.3908 104.103 84.8085C103.294 83.0782 102.387 81.3956 101.386 79.7691C100.198 77.8193 98.9393 75.914 97.611 74.0573L97.5436 73.9623L97.5261 73.9374ZM95.4738 79.7741C94.9739 80.519 94.4239 81.3614 93.879 82.2513C92.9766 83.6898 92.1667 85.1843 91.4543 86.7257C90.7744 88.2381 90.4994 89.2954 90.4994 89.8629C90.4994 93.1449 92.8391 95.3972 95.4988 95.3972C98.1585 95.3972 100.498 93.1474 100.498 89.8629C100.498 89.3954 100.238 88.393 99.5483 86.8707C98.9034 85.4459 98.0235 83.8636 97.1111 82.3588C96.5809 81.4875 96.035 80.6258 95.4738 79.7741ZM70.502 137.267V137.882C70.502 139.208 69.9752 140.479 69.0377 141.417C68.1001 142.354 66.8285 142.881 65.5026 142.881H58.0035C56.6776 142.881 55.406 142.354 54.4684 141.417C53.5309 140.479 53.0042 139.208 53.0042 137.882V110.398C53.0042 109.072 53.5309 107.8 54.4684 106.863C55.406 105.925 56.6776 105.398 58.0035 105.398H65.5026C66.6285 105.398 67.7216 105.778 68.6049 106.476C69.4882 107.174 70.1099 108.15 70.3695 109.245C73.6791 108.053 77.5461 106.633 78.7284 106.093C79.7333 105.636 80.8931 105.481 81.858 105.423C82.8538 105.375 83.8517 105.392 84.8451 105.476C85.9574 105.566 87.065 105.707 88.1647 105.896L88.2222 105.906L88.2397 105.908H88.2472L88.2922 105.918L105.015 109.668L105.118 109.703L105.145 109.713L105.26 109.748L105.733 109.883C106.145 109.998 106.737 110.15 107.445 110.305C108.882 110.618 110.694 110.91 112.382 110.91C113.941 110.91 115.556 111.493 116.416 113.072C117.156 114.427 116.984 115.917 116.709 116.947C116.361 118.232 115.646 119.582 114.739 120.729C115.964 120.267 117.306 119.719 118.746 119.129L119.053 119.004C123.11 117.337 127.92 115.362 132.164 114.662C137.014 113.86 140.541 115.62 142.14 118.742C143.565 121.521 143.235 125.168 141.091 127.366C140.553 127.918 139.733 128.498 138.911 129.03C138.031 129.603 136.949 130.245 135.746 130.93C132.984 132.477 130.188 133.962 127.36 135.385C121.431 138.392 115.216 141.316 113.242 142.039C110.952 142.876 108.492 142.956 106.13 142.834C104.703 142.745 103.279 142.624 101.858 142.471C100.818 142.364 99.776 142.268 98.7334 142.184C93.914 141.819 90.2145 140.641 86.8099 139.559L86.395 139.427C82.8754 138.312 79.6008 137.319 75.2639 137.144C74.274 137.104 72.2942 137.182 70.502 137.267ZM80.8007 110.64C80.9631 110.565 81.3881 110.458 82.1455 110.413C82.8554 110.37 83.6653 110.398 84.4577 110.458C85.4057 110.535 86.3498 110.655 87.2873 110.815H87.2948L103.71 114.497L103.823 114.532C103.961 114.576 104.153 114.631 104.398 114.697C104.883 114.832 105.568 115.01 106.38 115.187C107.842 115.507 109.805 115.842 111.799 115.9C111.622 116.38 111.383 116.837 111.089 117.257C110.689 117.837 110.252 118.284 109.892 118.542C108.852 119.287 108.012 119.597 107.502 119.729C107.329 119.777 107.151 119.81 106.972 119.829H106.917L93.5141 119.669L93.0391 124.628L93.1716 124.653L93.5541 124.721L94.9439 124.966C96.1112 125.171 97.7135 125.446 99.4583 125.731C102.893 126.291 107.032 126.911 109.382 127.053C111.007 127.153 112.897 126.653 114.654 126.066C116.486 125.453 118.558 124.606 120.643 123.751C124.935 121.991 129.307 120.199 132.979 119.592C136.154 119.067 137.286 120.227 137.691 121.019C138.273 122.156 137.958 123.419 137.511 123.874C137.404 123.986 137.011 124.304 136.191 124.836C135.426 125.328 134.439 125.921 133.279 126.578C130.585 128.086 127.858 129.535 125.1 130.923C119.121 133.955 113.172 136.737 111.522 137.342C110.187 137.832 108.535 137.949 106.387 137.839C105.122 137.765 103.86 137.657 102.6 137.517C101.439 137.395 100.275 137.288 99.1109 137.197C94.8814 136.877 91.6668 135.855 88.2197 134.76L87.9073 134.66C84.3377 133.527 80.5182 132.35 75.4663 132.148C74.329 132.103 72.3042 132.173 70.502 132.258V114.507C74.0165 113.25 79.2184 111.363 80.8007 110.64ZM65.5026 110.395H58.0035V137.879H65.5026V110.395Z" fill="white"/>
<defs>
<filter id="filter0_f_5518_1884" x="0" y="0" width="196" height="196" filterUnits="userSpaceOnUse" color-interpolation-filters="sRGB">
<feFlood flood-opacity="0" result="BackgroundImageFix"/>
<feBlend mode="normal" in="SourceGraphic" in2="BackgroundImageFix" result="shape"/>
<feGaussianBlur stdDeviation="20" result="effect1_foregroundBlur_5518_1884"/>
</filter>
<linearGradient id="paint0_linear_5518_1884" x1="52.992" y1="57.69" x2="147.878" y2="64.4087" gradientUnits="userSpaceOnUse">
<stop stop-color="#BB0DBA"/>
<stop offset="0.488034" stop-color="#5C18DD"/>
<stop offset="1" stop-color="#0099AD"/>
</linearGradient>
<linearGradient id="paint1_linear_5518_1884" x1="63.08" y1="66.725" x2="136.699" y2="71.9378" gradientUnits="userSpaceOnUse">
<stop stop-color="#BB0DBA"/>
<stop offset="0.488034" stop-color="#5C18DD"/>
<stop offset="1" stop-color="#0099AD"/>
</linearGradient>
</defs>
</svg>
