<svg width="196" height="196" viewBox="0 0 196 196" fill="none" xmlns="http://www.w3.org/2000/svg">
<g opacity="0.6" filter="url(#filter0_f_5518_1895)">
<circle cx="98" cy="98" r="58" fill="url(#paint0_linear_5518_1895)"/>
</g>
<circle opacity="0.3" cx="98" cy="98" r="43" stroke="url(#paint1_linear_5518_1895)" stroke-width="4"/>
<path d="M135.179 132.438V63.5615C135.178 62.0493 133.95 60.8213 132.438 60.8213H92.2588C90.7467 60.8215 89.5188 62.0495 89.5186 63.5615C89.5186 65.2184 88.1754 66.5615 86.5186 66.5615C84.8617 66.5615 83.5186 65.2184 83.5186 63.5615C83.5188 58.7358 87.433 54.8215 92.2588 54.8213H132.438C137.263 54.8213 141.178 58.7356 141.179 63.5615V132.438C141.179 137.264 137.264 141.179 132.438 141.179H112.349C110.692 141.179 109.349 139.835 109.349 138.179C109.349 136.522 110.692 135.179 112.349 135.179H132.438C133.95 135.179 135.179 133.95 135.179 132.438Z" fill="white"/>
<path d="M82.9105 83.666C85.6861 83.6666 88.3476 84.7695 90.3099 86.7324L109.264 105.694C110.102 106.53 111.239 107 112.423 106.999H122.662L122.817 107.003C124.402 107.083 125.662 108.394 125.662 109.999C125.662 111.604 124.402 112.915 122.817 112.995L122.662 112.999H112.425C109.652 113 106.991 111.901 105.028 109.942L86.0668 90.9746C85.2816 90.1892 84.2343 89.7258 83.1302 89.6709L82.9095 89.666H69.3353C67.6786 89.666 66.3355 88.3227 66.3353 86.666C66.3353 85.0092 67.6785 83.666 69.3353 83.666H82.9105ZM119.67 81.6709C119.67 79.3714 118.756 77.1651 117.13 75.5391C115.504 73.9132 113.299 73 110.999 73C108.7 73 106.495 73.9132 104.869 75.5391C103.243 77.1651 102.329 79.3714 102.329 81.6709C102.33 83.9703 103.243 86.1758 104.869 87.8018C106.495 89.4276 108.7 90.3408 110.999 90.3408C113.299 90.3408 115.504 89.4276 117.13 87.8018C118.756 86.1758 119.67 83.9703 119.67 81.6709ZM125.67 81.6709C125.67 85.5615 124.124 89.2928 121.373 92.0439C118.622 94.7952 114.89 96.3408 110.999 96.3408C107.109 96.3408 103.378 94.795 100.626 92.0439C97.8752 89.2928 96.3296 85.5616 96.3295 81.6709C96.3295 77.7801 97.8751 74.0481 100.626 71.2969C103.378 68.5458 107.109 67 110.999 67C114.89 67 118.622 68.5456 121.373 71.2969C124.125 74.0481 125.67 77.7802 125.67 81.6709Z" fill="white"/>
<path d="M93.8778 94.5418C95.0494 93.3702 96.9484 93.3702 98.12 94.5418C99.2916 95.7133 99.2916 97.6124 98.12 98.7839L80.3046 116.599C78.3422 118.562 75.6807 119.665 72.9052 119.666H55.9999C54.343 119.666 52.9999 118.323 52.9999 116.666C53 115.009 54.3431 113.666 55.9999 113.666H72.9042L73.1249 113.661C74.2289 113.606 75.2762 113.143 76.0614 112.357H76.0624L93.8778 94.5418Z" fill="white"/>
<path d="M92.9994 140V126.427L92.9936 126.205C92.9423 125.175 92.5358 124.193 91.8432 123.429L91.6899 123.268L80.5424 112.12L80.436 112.009C79.3717 110.831 79.4074 109.013 80.5424 107.878C81.6775 106.743 83.4956 106.707 84.6733 107.771L84.7846 107.878L95.933 119.025H95.9321C97.895 120.988 98.9988 123.649 98.9994 126.425V140C98.9994 141.657 97.6561 143 95.9994 143C94.3426 143 92.9994 141.657 92.9994 140Z" fill="white"/>
<defs>
<filter id="filter0_f_5518_1895" x="0" y="0" width="196" height="196" filterUnits="userSpaceOnUse" color-interpolation-filters="sRGB">
<feFlood flood-opacity="0" result="BackgroundImageFix"/>
<feBlend mode="normal" in="SourceGraphic" in2="BackgroundImageFix" result="shape"/>
<feGaussianBlur stdDeviation="20" result="effect1_foregroundBlur_5518_1895"/>
</filter>
<linearGradient id="paint0_linear_5518_1895" x1="52.992" y1="57.69" x2="147.878" y2="64.4087" gradientUnits="userSpaceOnUse">
<stop stop-color="#BB0DBA"/>
<stop offset="0.488034" stop-color="#5C18DD"/>
<stop offset="1" stop-color="#0099AD"/>
</linearGradient>
<linearGradient id="paint1_linear_5518_1895" x1="63.08" y1="66.725" x2="136.699" y2="71.9378" gradientUnits="userSpaceOnUse">
<stop stop-color="#BB0DBA"/>
<stop offset="0.488034" stop-color="#5C18DD"/>
<stop offset="1" stop-color="#0099AD"/>
</linearGradient>
</defs>
</svg>
