<svg width="196" height="196" viewBox="0 0 196 196" fill="none" xmlns="http://www.w3.org/2000/svg">
<g opacity="0.6" filter="url(#filter0_f_5518_1959)">
<circle cx="98" cy="98" r="58" fill="url(#paint0_linear_5518_1959)"/>
</g>
<circle opacity="0.3" cx="98" cy="98" r="43" stroke="url(#paint1_linear_5518_1959)" stroke-width="4"/>
<path d="M113 114.5V120.5H95.2891L71.75 134.622V120.5H68V114.5H77.75V124.024L93.627 114.5H113ZM114.5 113V83C114.5 82.1775 113.823 81.5 113 81.5H68C67.1775 81.5 66.5 82.1775 66.5 83V113C66.5 113.823 67.1775 114.5 68 114.5V120.5C63.8637 120.5 60.5 117.136 60.5 113V83C60.5 78.8637 63.8637 75.5 68 75.5H113C117.136 75.5 120.5 78.8637 120.5 83V113C120.5 117.136 117.136 120.5 113 120.5V114.5C113.823 114.5 114.5 113.823 114.5 113Z" fill="white"/>
<path d="M129.5 102V72C129.5 69.5206 127.479 67.5 125 67.5H80C77.5206 67.5 75.5 69.5206 75.5 72H69.5C69.5 66.2069 74.2069 61.5 80 61.5H125C130.793 61.5 135.5 66.2069 135.5 72V102C135.5 107.793 130.793 112.5 125 112.5V106.5C127.479 106.5 129.5 104.479 129.5 102Z" fill="white"/>
<defs>
<filter id="filter0_f_5518_1959" x="0" y="0" width="196" height="196" filterUnits="userSpaceOnUse" color-interpolation-filters="sRGB">
<feFlood flood-opacity="0" result="BackgroundImageFix"/>
<feBlend mode="normal" in="SourceGraphic" in2="BackgroundImageFix" result="shape"/>
<feGaussianBlur stdDeviation="20" result="effect1_foregroundBlur_5518_1959"/>
</filter>
<linearGradient id="paint0_linear_5518_1959" x1="52.992" y1="57.69" x2="147.878" y2="64.4087" gradientUnits="userSpaceOnUse">
<stop stop-color="#BB0DBA"/>
<stop offset="0.488034" stop-color="#5C18DD"/>
<stop offset="1" stop-color="#0099AD"/>
</linearGradient>
<linearGradient id="paint1_linear_5518_1959" x1="63.08" y1="66.725" x2="136.699" y2="71.9378" gradientUnits="userSpaceOnUse">
<stop stop-color="#BB0DBA"/>
<stop offset="0.488034" stop-color="#5C18DD"/>
<stop offset="1" stop-color="#0099AD"/>
</linearGradient>
</defs>
</svg>
