<svg width="196" height="196" viewBox="0 0 196 196" fill="none" xmlns="http://www.w3.org/2000/svg">
<g opacity="0.6" filter="url(#filter0_f_5518_1949)">
<circle cx="98" cy="98" r="58" fill="url(#paint0_linear_5518_1949)"/>
</g>
<circle opacity="0.3" cx="98" cy="98" r="43" stroke="url(#paint1_linear_5518_1949)" stroke-width="4"/>
<path d="M98 120.5L80.8719 96.3125C78.0683 93.0024 76.2629 88.9639 75.6658 84.6673C75.0687 80.3708 75.7046 75.993 77.4994 72.0439C79.2942 68.0947 82.174 64.7368 85.8035 62.3611C89.4329 59.9854 93.6626 58.6897 98 58.625C104.012 58.6844 109.756 61.1242 113.973 65.4099C118.191 69.6957 120.537 75.478 120.5 81.4906C120.502 86.7358 118.717 91.825 115.437 95.9188L98 120.5ZM98 64.25C93.4771 64.3019 89.1596 66.1467 85.9957 69.3792C82.8318 72.6117 81.08 76.9676 81.125 81.4906C81.1463 85.6184 82.6312 89.6048 85.3156 92.7406L98 110.713L111.022 92.375C113.497 89.2853 114.855 85.4495 114.875 81.4906C114.92 76.9676 113.168 72.6117 110.004 69.3792C106.84 66.1467 102.523 64.3019 98 64.25Z" fill="white"/>
<path d="M98 83.9375C101.107 83.9375 103.625 81.4191 103.625 78.3125C103.625 75.2059 101.107 72.6875 98 72.6875C94.8934 72.6875 92.375 75.2059 92.375 78.3125C92.375 81.4191 94.8934 83.9375 98 83.9375Z" fill="white"/>
<path d="M131.75 86.75H126.125V92.375H131.75V131.75H64.25V92.375H69.875V86.75H64.25C62.7582 86.75 61.3274 87.3426 60.2725 88.3975C59.2176 89.4524 58.625 90.8832 58.625 92.375V131.75C58.625 133.242 59.2176 134.673 60.2725 135.727C61.3274 136.782 62.7582 137.375 64.25 137.375H131.75C133.242 137.375 134.673 136.782 135.727 135.727C136.782 134.673 137.375 133.242 137.375 131.75V92.375C137.375 90.8832 136.782 89.4524 135.727 88.3975C134.673 87.3426 133.242 86.75 131.75 86.75Z" fill="white"/>
<defs>
<filter id="filter0_f_5518_1949" x="0" y="0" width="196" height="196" filterUnits="userSpaceOnUse" color-interpolation-filters="sRGB">
<feFlood flood-opacity="0" result="BackgroundImageFix"/>
<feBlend mode="normal" in="SourceGraphic" in2="BackgroundImageFix" result="shape"/>
<feGaussianBlur stdDeviation="20" result="effect1_foregroundBlur_5518_1949"/>
</filter>
<linearGradient id="paint0_linear_5518_1949" x1="52.992" y1="57.69" x2="147.878" y2="64.4087" gradientUnits="userSpaceOnUse">
<stop stop-color="#BB0DBA"/>
<stop offset="0.488034" stop-color="#5C18DD"/>
<stop offset="1" stop-color="#0099AD"/>
</linearGradient>
<linearGradient id="paint1_linear_5518_1949" x1="63.08" y1="66.725" x2="136.699" y2="71.9378" gradientUnits="userSpaceOnUse">
<stop stop-color="#BB0DBA"/>
<stop offset="0.488034" stop-color="#5C18DD"/>
<stop offset="1" stop-color="#0099AD"/>
</linearGradient>
</defs>
</svg>
