<svg width="80" height="80" viewBox="0 0 80 80" fill="none" xmlns="http://www.w3.org/2000/svg">
<g clip-path="url(#clip0_1538_8561)">
<path d="M80 18C80 8.05888 71.9411 0 62 0H18C8.05888 0 0 8.05887 0 18V62C0 71.9411 8.05887 80 18 80H40V48.8889H31.1111V37.8889H40V28.7778C40 19.16 45.3867 12.4044 56.7378 12.4044L64.7511 12.4133V23.9911H59.4311C55.0133 23.9911 53.3333 27.3067 53.3333 30.3822V37.8933H64.7467L62.2222 48.8889H53.3333V80H62C71.9411 80 80 71.9411 80 62V18Z" fill="#1877F2"/>
</g>
<defs>
<clipPath id="clip0_1538_8561">
<rect width="80" height="80" fill="white"/>
</clipPath>
</defs>
</svg>
