<svg width="80" height="80" viewBox="0 0 80 80" fill="none" xmlns="http://www.w3.org/2000/svg">
<g clip-path="url(#clip0_1559_12278)">
<path d="M1.69401 39.5216C1.69215 46.2432 3.44843 52.8063 6.78797 58.5911L1.37463 78.3561L21.6016 73.0525C27.1961 76.098 33.4644 77.6939 39.8342 77.6943H39.8509C60.8788 77.6943 77.996 60.5833 78.005 39.5517C78.0091 29.3604 74.0438 19.7771 66.8394 12.5672C59.6363 5.35791 50.0565 1.38551 39.8494 1.38086C18.819 1.38086 1.70301 18.4909 1.69432 39.5216" fill="url(#paint0_linear_1559_12278)"/>
<path d="M0.331783 39.5088C0.329612 46.4722 2.14884 53.2701 5.60744 59.262L0 79.7355L20.9522 74.2419C26.7253 77.3895 33.2251 79.049 39.8391 79.0515H39.8561C61.6384 79.0515 79.3705 61.325 79.3798 39.5405C79.3836 28.9829 75.2757 19.0552 67.814 11.587C60.3513 4.11969 50.4288 0.00434109 39.8561 0C18.0701 0 0.340465 17.724 0.331783 39.5088ZM12.8096 58.2301L12.0273 56.9882C8.7386 51.7591 7.00279 45.7163 7.00527 39.5113C7.01209 21.4043 21.7482 6.67287 39.8685 6.67287C48.6437 6.67659 56.8905 10.0974 63.0933 16.3039C69.2958 22.511 72.7088 30.7622 72.7067 39.538C72.6986 57.645 57.9622 72.3783 39.8561 72.3783H39.8431C33.9476 72.3752 28.1656 70.7919 23.1231 67.8L21.9231 67.0884L9.48961 70.3482L12.8096 58.2301Z" fill="url(#paint1_linear_1559_12278)"/>
<path d="M29.9777 22.992C29.2379 21.3477 28.4593 21.3145 27.7557 21.2857C27.1796 21.2609 26.521 21.2627 25.863 21.2627C25.2044 21.2627 24.1343 21.5105 23.2298 22.4981C22.3244 23.4866 19.7731 25.8754 19.7731 30.734C19.7731 35.5926 23.312 40.2885 23.8053 40.948C24.2993 41.6063 30.6373 51.8959 40.6751 55.8544C49.0174 59.144 50.7151 58.4897 52.5256 58.3247C54.3365 58.1604 58.3687 55.9365 59.1914 53.6305C60.0146 51.3247 60.0146 49.3483 59.7678 48.9353C59.521 48.5238 58.8624 48.2767 57.8748 47.783C56.8872 47.2894 52.0317 44.8999 51.1266 44.5703C50.2211 44.241 49.5628 44.0767 48.9042 45.0655C48.2456 46.0528 46.3545 48.2767 45.778 48.9353C45.2022 49.5954 44.6258 49.6776 43.6385 49.1837C42.6503 48.6882 39.4698 47.6466 35.6965 44.2826C32.7607 41.6649 30.7787 38.4323 30.2025 37.4435C29.6264 36.4562 30.1408 35.921 30.636 35.4289C31.0797 34.9864 31.6239 34.2758 32.1182 33.6993C32.6106 33.1226 32.7749 32.7111 33.1042 32.0525C33.4338 31.3933 33.2689 30.8165 33.0224 30.3226C32.7749 29.8286 30.8559 24.9446 29.9777 22.992Z" fill="white"/>
</g>
<defs>
<linearGradient id="paint0_linear_1559_12278" x1="3832.89" y1="7698.9" x2="3832.89" y2="1.38086" gradientUnits="userSpaceOnUse">
<stop stop-color="#1FAF38"/>
<stop offset="1" stop-color="#60D669"/>
</linearGradient>
<linearGradient id="paint1_linear_1559_12278" x1="3968.99" y1="7973.55" x2="3968.99" y2="0" gradientUnits="userSpaceOnUse">
<stop stop-color="#F9F9F9"/>
<stop offset="1" stop-color="white"/>
</linearGradient>
<clipPath id="clip0_1559_12278">
<rect width="80" height="80" fill="white"/>
</clipPath>
</defs>
</svg>
