<svg
                          xmlns="http://www.w3.org/2000/svg"
                          width="20"
                          height="20"
                          viewBox="0 0 20 20"
                          fill="none"
                        >
                          <path
                            d="M10.8009 1.66347C10.7195 1.52316 10.6027 1.40669 10.4621 1.32573C10.3216 1.24476 10.1622 1.20215 10 1.20215C9.83779 1.20215 9.67842 1.24476 9.53786 1.32573C9.39729 1.40669 9.28047 1.52316 9.19907 1.66347L6.68611 5.99495C6.59907 6.14476 6.4795 6.27312 6.33623 6.37056C6.19296 6.46799 6.02965 6.53202 5.85833 6.55791L1.14815 7.26903C0.357407 7.3894 0.0796288 8.38754 0.696295 8.89866L4.20463 11.8042C4.5287 12.0737 4.68148 12.4987 4.60278 12.9125L3.68518 17.732C3.6526 17.9032 3.66897 18.08 3.73241 18.2423C3.79585 18.4046 3.90379 18.5457 4.04383 18.6493C4.18387 18.753 4.35032 18.8151 4.52404 18.8284C4.69777 18.8417 4.87173 18.8057 5.02592 18.7246L9.46111 16.3894C9.62728 16.302 9.81223 16.2563 10 16.2563C10.1878 16.2563 10.3727 16.302 10.5389 16.3894L14.9741 18.7246C15.1283 18.8057 15.3022 18.8417 15.476 18.8284C15.6497 18.8151 15.8161 18.753 15.9562 18.6493C16.0962 18.5457 16.2041 18.4046 16.2676 18.2423C16.331 18.08 16.3474 17.9032 16.3148 17.732L15.3972 12.9125C15.3583 12.7091 15.3748 12.4989 15.4448 12.304C15.5148 12.109 15.6359 11.9364 15.7954 11.8042L19.3046 8.89773C19.9204 8.38847 19.6426 7.38847 18.8509 7.26903L14.1426 6.55791C13.9711 6.53215 13.8076 6.46818 13.6642 6.37074C13.5207 6.2733 13.401 6.14487 13.3139 5.99495L10.8009 1.66347Z"
                            fill="#EF66EE"
                          />
                        </svg>